<?xml version="1.0" encoding="utf-8"?>
<!-- Generator: Adobe Illustrator 18.0.0, SVG Export Plug-In . SVG Version: 6.00 Build 0)  -->
<!DOCTYPE svg PUBLIC "-//W3C//DTD SVG 1.1//EN" "http://www.w3.org/Graphics/SVG/1.1/DTD/svg11.dtd">
<svg version="1.1" id="Layer_1" xmlns="http://www.w3.org/2000/svg" xmlns:xlink="http://www.w3.org/1999/xlink" x="0px" y="0px"
	 viewBox="0 0 247.6 159.5" enable-background="new 0 0 247.6 159.5" xml:space="preserve">
<g>
	<g>
		<g>
			<g>
				<g>
					<path fill="#FFFFFF" d="M111.8,14.3c0.4,0.3,1,1.3,1.2,1.5c0.6,0.4,1.6,0.4,2.1,0.9c0,0.5-0.1,0.9-0.3,1.4
						c-0.2,0.6-0.4,0.6-0.7,1.2c-0.1,0.3-0.3,0.4-0.4,0.7c-0.1,0.4,0.1,0.9-0.1,1.3c-0.1,0.3-0.3,0.4-0.5,0.7
						c-0.1,0.2,0,0.4-0.1,0.6c-0.1,0.1-0.1,0.2-0.2,0.3c-0.1,0.2-0.2,0.4-0.1,0.7c0,0.2,0.1,0.3,0,0.4c-0.1,0.4-0.4,0.8-0.1,1.1
						c0.1,0.1,0.3,0.1,0.4,0.1c0.1,0.1,0.2,0.2,0.4,0.3c0.3,0.2,0.6,0.1,0.8-0.1c0.2-0.1,0.3-0.1,0.5-0.2c0.2,0,0.4-0.1,0.6-0.1
						c0.2-0.1,0.5-0.1,0.7-0.3c0.3-0.2,0.6-0.5,0.9-0.7c0.1-0.1,0.3-0.2,0.4-0.3c0.2-0.2,0.2-0.3,0.3-0.4c0.4-0.5,1.1-0.6,1.6-1.1
						c0.3-0.3,0.4-0.4,0.7-0.5c0.3-0.1,0.8-0.2,1.1-0.2c0.1,0,0.1,0,0.2,0.1c0.1,0.1,0.2,0.1,0.3,0.2c0.3,0.1,0.5,0.1,0.8,0.1
						c0.4,0.1,0.8,0.2,1.2,0.5c0.2,0.1,0.2,0.3,0.4,0.4c0.3,0.1,0.5,0,0.7,0.1c0.4,0.3,0.8,0.6,1.3,0.9c0.5,0.3,1,0,1.3,0.6
						c0.3,0.4,0.6,1.3,0.5,1.8c-0.1,1.6-0.5,2.8-0.3,4.4c0,0.4,0.2,0.9-0.1,1.3c-0.3,0.5-0.6,0.9-0.6,1.5c0,0.9,0.4,1.8,0.4,2.7
						c0,0.6-0.1,1.3-0.3,1.9c0,0.1-0.1,0.3-0.2,0.3c0,0.1,0,0.3,0,0.5c-0.1,0.4-0.4,0.6-0.3,1.1c0.1,0.5,0.3,1,0.2,1.5
						c-0.1,0.3-0.2,0.6-0.3,0.9c-0.1,0.4-0.1,0.5,0,0.9c0.1,0.9-1,1.4-1.4,2.1c-0.2,0.3-0.3,0.7-0.4,1.1c0,0.4,0,0.8,0.1,1.2
						c0,0.2,0,0.8,0.3,1c0.2,0.2,0.3,0.6,0.3,0.8c0.1,0.6-0.4,1.4-0.5,1.9c-0.2,0.5-0.4,1-0.5,1.5c-0.1,0.6,0,1.3-0.4,1.7
						c-0.2,0.2-0.4,0.3-0.6,0.5c-0.2,0.2-0.3,0.5-0.5,0.7c-0.2,0.3-0.2,0.6-0.4,0.9c-0.1,0.2-0.3,0.7-0.3,0.9
						c-0.1,0.3,0.1,0.6-0.1,0.9c-0.1,0.2-0.5,0.6-0.6,0.8c-0.5,0.5-0.3,0.9-0.5,1.5c-0.1,0.3-0.3,0.4-0.5,0.5
						c-0.1,0.1-0.2,0.2-0.2,0.3c-0.1,0.1-0.1,0.3-0.2,0.4c-0.1,0.1-0.2,0.2-0.3,0.3c-0.1,0.1-0.1,0.2-0.2,0.3
						c-0.3,0.5-0.2,1.1-0.7,1.5c-0.3,0.2-0.5,0.5-0.7,0.7c-0.1,0.2-0.3,0.3-0.4,0.5c-0.2,0.2-0.2,0.3-0.3,0.5
						c-0.1,0.2-0.4,0.4-0.5,0.6c-0.3,0.6-0.2,1.4-0.3,2c0,0.3-0.1,0.6-0.2,0.9c-0.1,0.2-0.2,0.3-0.4,0.5c-0.7,0.5-0.5,0.8-0.6,1.6
						c0,0.3-0.1,0.4-0.3,0.6c-0.3,0.4-0.6,0.8-1,1.2c-0.3,0.3-0.5,0.5-0.8,0.8c-0.2,0.2-0.3,0.4-0.3,0.7c0,0.3,0.1,0.6-0.1,0.9
						c-0.2,0.3-0.4,0.5-0.7,0.8c-0.4,0.4-0.8,0.9-1.3,1.3c-0.5,0.3-1.3,0.7-1.4,1.3c-0.1,0.3,0,0.4-0.3,0.7
						c-0.2,0.2-0.4,0.3-0.6,0.5c-0.2,0.2-0.2,0.3-0.3,0.5c-0.1,0.2-0.2,0.3-0.3,0.5c-0.2,0.3-0.2,0.6-0.4,0.9
						c-0.1,0.2-0.2,0.5-0.4,0.8c-0.3,0.3-0.6,0.5-0.9,0.6c-0.5,0.3-0.9,0.6-1.4,1c-0.4,0.4-0.9,0.8-1.3,1.2
						c-0.2,0.3-0.4,0.6-0.7,0.8c-0.3,0.3-0.6,0.6-0.9,0.8c-0.3,0.2-0.6,0.2-0.9,0.3c-0.6,0.2-1.1,0.2-1.7,0.1
						c-0.5-0.1-0.9-0.2-1.4-0.4c-0.5-0.3-1-0.6-1.5-0.9c-0.3-0.2-0.7-0.2-1.1-0.4c-0.4-0.2-0.6-0.5-0.9-0.8
						c-0.4-0.3-0.8-0.6-1.2-0.9c-0.2-0.2-0.5-0.3-0.7-0.5c-0.4-0.3-0.7-0.8-1-1.1c-0.2-0.2-0.3-0.3-0.4-0.5c-0.1-0.3,0.1-0.7-0.1-1
						c-0.2-0.4-0.9-0.8-1.3-1c-0.4-0.2-0.5-0.5-0.8-0.8c-0.2-0.3-0.6-0.5-0.7-0.9c-0.1-0.4-0.1-0.8-0.2-1.2c-0.2-0.4-0.8-0.6-1-1
						c-0.3-0.4-0.2-1-0.5-1.4c-0.3-0.4-0.7-0.8-1.1-1.1c-0.2-0.2-0.7-0.3-0.8-0.6c-0.2-0.3-0.2-0.8-0.3-1.1
						c-0.1-0.5-0.4-0.9-0.6-1.3c-0.2-0.4-0.5-0.8-0.8-1.1c-0.2-0.2-0.7-0.5-0.9-0.8c-0.1-0.3,0.1-0.7-0.1-0.9
						c-0.1,0-0.1-0.1-0.2-0.1c-0.2-0.2-0.3-0.4-0.5-0.6c-0.2-0.2-0.5-0.6-0.8-0.7c-0.1-0.1-0.3-0.1-0.5-0.1c-0.3-0.2-0.4-0.7-0.5-1
						c-0.2-0.3-0.4-0.6-0.5-1c-0.1-0.2-0.3-0.5-0.5-0.7c-0.3-0.5-0.7-1.1-0.9-1.7c-0.1-0.2-0.2-0.3-0.3-0.5
						c-0.1-0.1-0.1-0.3-0.2-0.4c-0.1-0.1-0.3-0.3-0.3-0.4c0-0.1,0.1-0.3,0.1-0.5c-0.1-0.3-0.2-0.5-0.3-0.8c0-0.2-0.1-0.4-0.2-0.5
						c-0.1-0.3-0.3-0.6-0.4-0.9c-0.1-0.4-0.1-0.8-0.1-1.2c-0.1-0.5-0.2-1.1-0.3-1.6c-0.1-0.5-0.2-1-0.3-1.5
						c-0.2-1.1-0.4-2.2-0.8-3.2c-0.4-0.8-1.1-1.4-1.4-2.4c-0.3-1,0.1-2.4,0.1-3.4c0-0.7,0.2-1.5-0.1-2.2c-0.1-0.2-0.2-0.5-0.3-0.7
						c-0.2-0.5-0.7-0.8-0.7-1.5c0-0.6,0.2-1.1,0.1-1.7c-0.1-0.4-0.2-0.9-0.4-1.3c-0.2-0.4-0.5-0.8-0.6-1.2c-0.1-0.4,0.1-0.9,0.1-1.4
						c0.1-1.1,0.6-2.4,0.2-3.5c-0.2-0.5-0.7-0.8-0.9-1.3c-0.2-0.5,0-1.1,0.1-1.6c0.2-0.5-0.1-1.9-0.1-2.1c0,0,0.1-0.3,0.1-0.4
						c0-0.1-0.1-0.3,0.1-0.4c0.2-0.2,0.4-0.2,0.7-0.4c0.3-0.1,0.6-0.3,0.9-0.5c0.3-0.2,0.7-0.3,1-0.5c0.3-0.2,0.6-0.5,0.9-0.8
						c0.6-0.5,2.4-0.9,3.1-0.6c0.3,0.1,0.6,0.3,0.9,0.5c0.1,0.1,0.1,0.2,0.2,0.3c0.1,0.1,0.3-0.1,0.4,0c0.1,0.1,0.2,0.2,0.3,0.3
						c0.1,0.1,0.3,0.1,0.4,0.1c0.3,0.1,0.6,0.1,0.9,0.2c0.2,0.1,0.4,0.2,0.6,0.3c0.1,0.1,0.1,0.2,0.2,0.3c0.1,0.1,0.3,0.1,0.4,0.1
						c0.3,0.1,0.5,0.4,0.8,0.4c0.3,0.1,0.6-0.1,0.8-0.1c0.6,0,1.7,0.5,1.8-0.5c0-0.3-0.4-1.7-0.5-2c-0.1-0.5-0.1-1-0.3-1.5
						c-0.1-0.3-0.6-0.5-0.8-0.8c-0.4-0.5-0.4-1.2-0.7-1.7c-0.2-0.4-0.4-0.4-0.5-0.8c-0.1-0.3-0.1-0.8-0.1-1.1c0-0.1,1.7-0.4,1.9-0.4
						c1-0.3,1.7-1.2,2.7-1.5c0.3-0.1,0.7,0,1-0.1c0.3-0.1,0.6-0.2,0.8-0.4c0.1-0.1,0.2-0.2,0.3-0.2c0.2-0.1,0.4,0,0.5-0.1
						c0.2-0.1,0.5-0.2,0.7-0.2c1-0.4,2-0.3,2.9-0.6c0.6-0.2,1.3-0.2,1.9-0.4c0.4-0.1,0.8-0.2,1.3-0.3c0.4-0.1,0.8,0,1.2-0.1
						c0.3-0.1,0.5-0.2,0.8-0.2c0.3,0,0.5,0.1,0.8,0.1c0.7,0,1.3,0.3,1.9,0.4c0.7,0.1,1.2,0,1.9-0.2c0.5-0.2,1-0.6,1.6-0.5
						c0.3,0,0.5,0.2,0.8,0.4c0.3,0.2,0.6,0.2,0.9,0.2c0.5,0.1,0.9,0.4,1.3,0.5c0.4,0.1,0.8,0.1,1.2,0.3c0.6,0.2,1.1,0.4,1.7,0.5
						C110.6,14,111.3,14,111.8,14.3z"/>
				</g>
			</g>
			<g>
				<path fill="#FFFFFF" d="M9.3,26.9c3.3-10.6,13.1-18,24.5-18c13.3,0,24.8,10,24.8,23.9c0,9.4-4.8,16.3-10,22.3L32.1,74.3h27v13.3
					H8.7v-8.9L36,47.8c6-6.8,7.6-11.2,7.6-15.2c0-5.4-4.2-10.4-10.1-10.4c-5.2,0-9,3.5-10.5,8.8L9.3,26.9z"/>
				<path fill="#FFFFFF" d="M138.6,21.1l18.8-11.1h10.5v77.6h-15V27.3l-14.4,8V21.1z"/>
				<path fill="#FFFFFF" d="M224.1,10.1l-14.6,24.7h1c14.7,0,27.1,11.2,27.1,26.7c0,15.1-12.5,27.3-27.6,27.3
					c-14.5,0-28.4-10.3-28.4-26.5c0-7.6,3.5-14.5,7.6-21.4l18.3-30.8H224.1z M196.1,62.2c0,7.3,6.2,13.2,13.7,13.2
					c7.6,0,13.1-6.1,13.1-13.5c0-7.4-5.5-13.9-13.8-13.9c-2.8,0-5.4,0.6-8.3,1.9C198.7,52.8,196.1,57,196.1,62.2z"/>
			</g>
		</g>
	</g>
	<g>
		<g>
			<path fill="#FFFFFF" d="M21.1,149.2c-1.3,0.8-3.6,1.3-5.7,1.3c-5.8,0-8.1-3.5-8.1-8.8c0-5,2.8-8.7,8.5-8.7c2,0,4,0.5,5.2,1.3v4.1
				l-2-0.1l-0.4-2.3c0-0.2-0.1-0.3-0.3-0.4c-0.7-0.2-1.6-0.4-2.6-0.4c-3.4,0-5.6,2.2-5.6,6.5c0,4.5,2.1,6.7,5.4,6.7
				c1,0,2.1-0.1,2.9-0.4c0.2-0.1,0.3-0.1,0.4-0.4l0.4-2.2h1.9V149.2z"/>
			<path fill="#FFFFFF" d="M31.4,150.1v-1.5l1.5-0.2c0.3,0,0.4-0.1,0.4-0.5v-12.7c0-0.4,0-0.4-0.4-0.5l-1.5-0.2v-1.5h12v4.2l-2-0.1
				l-0.3-1.8c0-0.2-0.1-0.3-0.4-0.3H36v5.4H42v2H36v5.5h5.2c0.3,0,0.3,0,0.4-0.3l0.4-2.1h2v4.3H31.4z"/>
			<path fill="#FFFFFF" d="M66.4,150.1l-8.1-13.4V148c0,0.4,0,0.4,0.4,0.5l1.6,0.2v1.5h-6v-1.5l1.5-0.2c0.3,0,0.4-0.1,0.4-0.5v-12.7
				c0-0.4,0-0.4-0.4-0.5l-1.5-0.2v-1.5h5.1l7.9,13.3v-11.2c0-0.4,0-0.4-0.4-0.5l-1.5-0.2v-1.5h6v1.5l-1.6,0.2
				c-0.3,0-0.4,0.1-0.4,0.4v14.8H66.4z"/>
			<path fill="#FFFFFF" d="M84,150.1v-1.5l2.4-0.2c0.3,0,0.4-0.1,0.4-0.5v-12.8h-3.1c-0.3,0-0.3,0-0.4,0.3l-0.4,2h-2v-4.3h14.4v4.3
				h-1.9l-0.4-2c0-0.2-0.1-0.3-0.4-0.3h-3.2V148c0,0.3,0,0.4,0.4,0.4l2.6,0.2v1.5H84z"/>
			<path fill="#FFFFFF" d="M105.1,150.1v-1.5l1.5-0.2c0.3,0,0.4-0.1,0.4-0.5v-12.7c0-0.4,0-0.4-0.4-0.5l-1.5-0.2v-1.5h12v4.2l-2-0.1
				l-0.3-1.8c0-0.2-0.1-0.3-0.4-0.3h-4.7v5.4h5.9v2h-5.9v5.5h5.2c0.3,0,0.3,0,0.4-0.3l0.4-2.1h2v4.3H105.1z"/>
			<path fill="#FFFFFF" d="M140.1,150.1l-8.1-13.4V148c0,0.4,0,0.4,0.4,0.5l1.6,0.2v1.5h-6v-1.5l1.5-0.2c0.3,0,0.4-0.1,0.4-0.5
				v-12.7c0-0.4,0-0.4-0.4-0.5l-1.5-0.2v-1.5h5.1l7.9,13.3v-11.2c0-0.4,0-0.4-0.4-0.5l-1.5-0.2v-1.5h6v1.5l-1.6,0.2
				c-0.4,0-0.4,0.1-0.4,0.4v14.8H140.1z"/>
			<path fill="#FFFFFF" d="M167.5,150.1l-8.1-13.4V148c0,0.4,0,0.4,0.4,0.5l1.6,0.2v1.5h-6v-1.5l1.5-0.2c0.3,0,0.4-0.1,0.4-0.5
				v-12.7c0-0.4,0-0.4-0.4-0.5l-1.5-0.2v-1.5h5.1l7.9,13.3v-11.2c0-0.4,0-0.4-0.4-0.5l-1.5-0.2v-1.5h6v1.5l-1.6,0.2
				c-0.3,0-0.4,0.1-0.4,0.4v14.8H167.5z"/>
			<path fill="#FFFFFF" d="M182.6,150.1v-1.5l1.7-0.2c0.3,0,0.4-0.1,0.4-0.5v-12.7c0-0.4,0-0.4-0.4-0.5l-1.7-0.2v-1.5h7v1.5
				l-1.8,0.2c-0.4,0-0.4,0.1-0.4,0.4V148c0,0.4,0,0.4,0.4,0.5l1.8,0.2v1.5H182.6z"/>
			<path fill="#FFFFFF" d="M209.3,150.1v-1.5l1.9-0.2l-1.1-3.2h-6.3l-1.1,3.2l1.9,0.2v1.5h-5.9v-1.5l1-0.3c0.3-0.1,0.5-0.2,0.6-0.4
				l5.2-14.8h3.3L214,148c0.1,0.3,0.3,0.3,0.6,0.4l1.1,0.3v1.5H209.3z M207.1,135.8L207.1,135.8l-2.6,7.4h5.1L207.1,135.8z"/>
			<path fill="#FFFFFF" d="M225,150.1v-1.5l1.5-0.2c0.3,0,0.4-0.1,0.4-0.5v-12.7c0-0.4,0-0.4-0.4-0.5l-1.5-0.2v-1.5h6.9v1.5
				l-1.9,0.2c-0.4,0-0.4,0.1-0.4,0.4v12.8h5.2c0.3,0,0.3,0,0.4-0.3l0.4-2.2h2v4.5H225z"/>
		</g>
		<g>
			<polygon fill="#FFFFFF" points="18.4,124.3 12.5,111.7 12.5,124.3 8.8,124.3 8.8,105.4 13.6,105.4 19.4,118.1 19.4,105.4 
				23.1,105.4 23.1,124.3 			"/>
			<path fill="#FFFFFF" d="M46.7,123.8c-0.7,0.4-1.9,0.8-3.7,0.8c-2.8,0-4.3-1.3-4.3-4.4v-6.6h-2v-2.9h2v-4l3.9-0.5v4.5h3.3v2.9
				h-3.3v6.1c0,1.2,0.3,1.8,1.6,1.8c0.8,0,1.4-0.1,1.9-0.5L46.7,123.8z"/>
			<path fill="#FFFFFF" d="M51.7,124.3h-3.9v-13.6h3.9V124.3z M49.8,109.4c-1.4,0-2.1-0.8-2.1-2.2c0-1.4,0.8-2.1,2.1-2.1
				c1.3,0,2.1,0.8,2.1,2.1C51.9,108.6,51.1,109.4,49.8,109.4"/>
			<path fill="#FFFFFF" d="M62.7,117.4c0-2.9-0.8-4-2.6-4c-1.8,0-2.8,1.1-2.8,4.1c0,3,0.7,4.2,2.7,4.2
				C61.8,121.7,62.7,120.6,62.7,117.4 M53.2,117.5c0-4.4,2.3-7.1,7-7.1c4.7,0,6.5,2.8,6.5,6.9c0,4.5-2,7.3-6.9,7.3
				C54.9,124.6,53.2,121.6,53.2,117.5"/>
			<path fill="#FFFFFF" d="M80.6,124.3h-3.9v-8.6c0-1.5-0.6-2.1-1.8-2.1c-1.1,0-2.1,0.6-2.7,1.1v9.6h-3.9v-13.6h3.5L72,112
				c1-0.9,2.5-1.6,4.3-1.6c3,0,4.3,1.5,4.3,4.6V124.3z"/>
			<rect x="96.1" y="105.4" fill="#FFFFFF" width="3.9" height="18.9"/>
			<path fill="#FFFFFF" d="M36.9,121.9c-0.1,0-0.2,0-0.3,0c-0.7,0-0.8-0.3-0.8-1v-5.7c0-3.4-1.8-4.8-5.5-4.8c-3.7,0-5.3,1.5-5.7,4.1
				l3.3,0.6c0.3-1.3,0.7-1.9,2.1-1.9c1.7,0,1.9,0.9,1.9,2.5v0.5c-3.5,0-7.8,0.6-7.8,4.7c0,1.4,0.7,3.6,4,3.6c1.9,0,3.2-0.6,4-1.7
				c0.3,1.3,1.2,1.7,2.8,1.7c0.6,0,1.3-0.1,1.9-0.3V121.9z M32,120.9c-0.4,0.4-1.3,0.9-2.3,0.9c-1.3,0-1.6-0.7-1.6-1.5
				c0-1.4,1.3-1.7,3.2-1.8H32V120.9z"/>
			<path fill="#FFFFFF" d="M94.9,121.9c-0.1,0-0.2,0-0.3,0c-0.7,0-0.8-0.3-0.8-1v-5.7c0-3.4-1.8-4.8-5.5-4.8c-3.7,0-5.3,1.5-5.7,4.1
				l3.3,0.6c0.3-1.3,0.7-1.9,2.1-1.9c1.7,0,1.9,0.9,1.9,2.5v0.5c-3.5,0-7.8,0.6-7.8,4.7c0,1.4,0.7,3.6,4,3.6c1.9,0,3.2-0.6,4-1.7
				c0.3,1.3,1.2,1.7,2.8,1.7c0.6,0,1.3-0.1,1.9-0.3V121.9z M90,120.9c-0.4,0.4-1.3,0.9-2.3,0.9c-1.3,0-1.6-0.7-1.6-1.5
				c0-1.4,1.3-1.7,3.2-1.8H90V120.9z"/>
		</g>
		<g>
			<path fill="#FFFFFF" d="M108.2,124.4h-4v-18.9h8c4.8,0,6.3,2.9,6.3,5.9c0,4.6-2.5,6.9-7.4,6.9h-2.9V124.4z M110.7,115
				c2.1,0,3.7-0.6,3.7-3.4c0-2.4-1.4-2.9-3.4-2.9h-2.8v6.3H110.7z"/>
			<path fill="#FFFFFF" d="M141.7,114.3c-1.8-0.2-3.6,0.3-4.8,1.2v8.8H133v-13.6h3.4l0.3,2.1c0.9-1.3,2.3-2.4,4.4-2.4
				c0.2,0,0.4,0,0.7,0V114.3z"/>
			<path fill="#FFFFFF" d="M147.2,115.5l4.5-4.8h4.4l-4.5,4.9l4.9,8.7H152l-3.5-6.2l-1.3,1.3v4.9h-3.9v-18.9h3.9V115.5z"/>
			<path fill="#FFFFFF" d="M131.8,122c-0.1,0-0.2,0-0.3,0c-0.7,0-0.8-0.3-0.8-1v-5.7c0-3.4-1.8-4.8-5.5-4.8c-3.7,0-5.3,1.5-5.7,4.1
				l3.3,0.6c0.3-1.3,0.7-1.9,2.1-1.9c1.7,0,1.9,0.9,1.9,2.5v0.5c-3.5,0-7.8,0.6-7.8,4.7c0,1.4,0.7,3.6,4,3.6c1.9,0,3.2-0.6,4-1.7
				c0.3,1.3,1.2,1.7,2.8,1.7c0.6,0,1.3-0.1,1.9-0.3V122z M126.9,121c-0.4,0.4-1.3,0.9-2.3,0.9c-1.3,0-1.6-0.7-1.6-1.5
				c0-1.4,1.3-1.7,3.2-1.8h0.6V121z"/>
		</g>
		<g>
			<path fill="#FFFFFF" d="M169.6,109.9l-0.4-2.3c-0.1-0.2-0.1-0.4-0.2-0.5c-0.2-0.2-1.3-0.6-2.8-0.6c-3,0-4.5,1.3-4.5,3.4
				c0,5.3,9.8,2.2,9.8,9.4c0,4-3.1,5.4-6.8,5.4c-2.4,0-4.6-0.6-5.3-1v-4h1.3l0.5,2.2c0.1,0.3,0.1,0.4,0.4,0.6
				c0.4,0.2,1.6,0.6,3.3,0.6c2.9,0,4.7-1.1,4.7-3.7c0-5.6-9.8-2.4-9.8-9.3c0-3.7,2.9-5.2,6.4-5.2c2.2,0,3.9,0.6,4.7,0.9v4.2
				L169.6,109.9z"/>
			<path fill="#FFFFFF" d="M181.8,116.6c-0.1-3.3-1.6-4.4-3.4-4.4c-2,0-3.7,1.1-3.9,4.4H181.8z M183.2,123.5
				c-1.2,0.7-2.7,1.1-4.5,1.1c-4.7,0-6.1-3.1-6.1-7.1c0-4.7,2.6-6.9,5.8-6.9c3.1,0,5.3,1.7,5.3,6.2c0,0.4,0,0.7-0.1,1.1h-9.2
				c0.1,3,1.2,5.1,4.4,5.1c1.6,0,2.5-0.3,3.7-1L183.2,123.5z"/>
			<path fill="#FFFFFF" d="M184.3,124.3v-1.2l1.4-0.2c0.4-0.1,0.4-0.1,0.4-0.5v-9.4c0-0.3-0.1-0.5-0.3-0.6l-1.5-0.5l0.2-1.1h3
				l0.2,1.7c0.9-0.8,2.2-1.9,4.1-1.9c0.6,0,1.3,0.1,1.7,0.2v3.7l-1.3-0.1l-0.3-2c0-0.2-0.1-0.2-0.3-0.2c-1.4,0-2.9,1.3-3.6,1.9v8.3
				c0,0.4,0,0.5,0.4,0.5l2.4,0.2v1.2H184.3z"/>
			<path fill="#FFFFFF" d="M200.5,124.3l-4.5-11.6c-0.1-0.3-0.2-0.4-0.6-0.4l-1.1-0.2l0.3-1.2h5v1.2l-1.9,0.2l3.9,10.4l3.9-10.4
				l-1.8-0.2l0.3-1.2h4.5v1.2l-0.8,0.2c-0.4,0.1-0.5,0.1-0.7,0.4l-4.5,11.7H200.5z"/>
			<path fill="#FFFFFF" d="M211.8,107.6c-0.9,0-1.4-0.5-1.4-1.4c0-0.9,0.5-1.4,1.4-1.4c0.9,0,1.4,0.5,1.4,1.4
				C213.2,107.1,212.7,107.6,211.8,107.6 M209,124.3v-1.2l1.9-0.2c0.4-0.1,0.4-0.1,0.4-0.5v-9.4c0-0.3-0.1-0.5-0.3-0.6l-1.5-0.5
				l0.2-1.1h3.4v11.6c0,0.4,0,0.5,0.4,0.5l1.8,0.2v1.2H209z"/>
			<path fill="#FFFFFF" d="M225.7,123.6c-0.9,0.6-2.7,1-4.3,1c-4.4,0-6.2-2.8-6.2-6.9c0-5,2.8-7.1,6.8-7.1c1.9,0,3.2,0.5,3.7,0.7
				v3.2l-1.3-0.1l-0.3-1.7c0-0.2-0.1-0.3-0.3-0.3c-0.4-0.1-1.2-0.3-2-0.3c-2.6,0-4.7,1.5-4.7,5.5c0,3.8,1.8,5.4,4.6,5.4
				c1.3,0,2.5-0.4,3.4-0.9L225.7,123.6z"/>
			<path fill="#FFFFFF" d="M235.6,116.6c-0.1-3.3-1.6-4.4-3.4-4.4c-2,0-3.7,1.1-3.9,4.4H235.6z M237,123.5c-1.2,0.7-2.7,1.1-4.5,1.1
				c-4.7,0-6.1-3.1-6.1-7.1c0-4.7,2.6-6.9,5.8-6.9c3.1,0,5.3,1.7,5.3,6.2c0,0.4,0,0.7-0.1,1.1h-9.2c0.1,3,1.2,5.1,4.4,5.1
				c1.6,0,2.5-0.3,3.7-1L237,123.5z"/>
			<g>
				<path fill="#FFFFFF" d="M240.3,124.3v-2.2h-0.7v-0.3h1.8v0.3h-0.7v2.2H240.3z"/>
				<path fill="#FFFFFF" d="M244.1,124.3h-0.3v-2.1h0l-0.7,2.1h-0.3l-0.7-2.1h0v2.1h-0.3v-2.5h0.5l0.7,2.1h0l0.7-2.1h0.5V124.3z"/>
			</g>
		</g>
	</g>
</g>
</svg>
