<?xml version="1.0" encoding="utf-8"?>
<!-- Generator: Adobe Illustrator 15.0.0, SVG Export Plug-In . SVG Version: 6.00 Build 0)  -->
<!DOCTYPE svg PUBLIC "-//W3C//DTD SVG 1.0//EN" "http://www.w3.org/TR/2001/REC-SVG-20010904/DTD/svg10.dtd">
<svg version="1.0" id="Layer_1" xmlns="http://www.w3.org/2000/svg" xmlns:xlink="http://www.w3.org/1999/xlink" x="0px" y="0px"
	 width="943.453px" height="488.975px" viewBox="36.114 139.103 943.453 488.975"
	 enable-background="new 36.114 139.103 943.453 488.975" xml:space="preserve">
<linearGradient id="SVGID_1_" gradientUnits="userSpaceOnUse" x1="26.5303" y1="686.1299" x2="90.7305" y2="686.1299" gradientTransform="matrix(4.1357 0 0 -4.1357 114.4322 3310.9631)">
	<stop  offset="0" style="stop-color:#F8EAE3"/>
	<stop  offset="0.0471" style="stop-color:#F8E9E1"/>
	<stop  offset="0.2993" style="stop-color:#F7E5DA"/>
	<stop  offset="1" style="stop-color:#F7E4D8"/>
</linearGradient>
<path fill="url(#SVGID_1_)" d="M390.41,332.924l99.257,280.814h-65.344l-23.16-68.239h-93.88l-21.919,68.239h-61.208l91.812-280.814
	H390.41z M353.603,389.17h-1.654l-34.326,108.769h71.134L353.603,389.17z"/>
<linearGradient id="SVGID_2_" gradientUnits="userSpaceOnUse" x1="95.3301" y1="686.1797" x2="147.9302" y2="686.1797" gradientTransform="matrix(4.1357 0 0 -4.1357 114.4322 3310.9631)">
	<stop  offset="0" style="stop-color:#F8EAE3"/>
	<stop  offset="0.0471" style="stop-color:#F8E9E1"/>
	<stop  offset="0.2993" style="stop-color:#F7E5DA"/>
	<stop  offset="1" style="stop-color:#F7E4D8"/>
</linearGradient>
<path fill="url(#SVGID_2_)" d="M726.229,613.324h-64.517l-55.419-106.7h-38.462v106.7h-59.141v-280.4h93.881
	c80.646,0,108.355,37.635,108.355,78.992c0,41.771-19.438,66.585-48.389,80.232L726.229,613.324z M591.819,459.891
	c28.122,0,57.486-9.926,57.486-42.185c0-26.882-22.747-36.808-55.005-36.808h-26.469v78.992H591.819z"/>
<linearGradient id="SVGID_3_" gradientUnits="userSpaceOnUse" x1="153.2305" y1="686.2305" x2="207.5303" y2="686.2305" gradientTransform="matrix(4.1357 0 0 -4.1357 114.4322 3310.9631)">
	<stop  offset="0" style="stop-color:#F8EAE3"/>
	<stop  offset="0.0471" style="stop-color:#F8E9E1"/>
	<stop  offset="0.2993" style="stop-color:#F7E5DA"/>
	<stop  offset="1" style="stop-color:#F7E4D8"/>
</linearGradient>
<path fill="url(#SVGID_3_)" d="M807.289,452.859l99.671-120.349h63.689l-93.467,116.627l95.534,164.187h-69.893l-68.239-117.453
	l-27.296,29.363v88.09h-59.141v-280.4h59.141V452.859z"/>
<linearGradient id="SVGID_4_" gradientUnits="userSpaceOnUse" x1="-15.5698" y1="686.1299" x2="32.7238" y2="686.1299" gradientTransform="matrix(4.1357 0 0 -4.1357 114.4322 3310.9631)">
	<stop  offset="0" style="stop-color:#F8EAE3"/>
	<stop  offset="0.0471" style="stop-color:#F8E9E1"/>
	<stop  offset="0.2993" style="stop-color:#F7E5DA"/>
	<stop  offset="1" style="stop-color:#F7E4D8"/>
</linearGradient>
<path fill="url(#SVGID_4_)" d="M148.058,332.924H50.042v280.814h59.141v-90.572h22.333c73.202,0,117.868-42.184,117.868-97.603
	C249.796,380.071,219.606,332.924,148.058,332.924z M205.544,426.391c0,0.827-0.414,1.241-0.827,2.068s-0.827,1.24-1.241,2.067
	c-0.414,0.414-0.414,1.241-0.827,1.654c-0.414,0.414-0.827,0.827-1.241,1.241c-0.414,0.413-0.827,1.24-1.241,1.654
	c-0.414,0.413-0.414,0.827-0.827,1.24c-0.414,0.414-1.241,0.827-1.654,1.654c-0.414,0.414-0.414,0.414-0.827,0.414s-0.827,0-1.654,0
	c-0.827,0.413-1.241,1.24-1.654,2.067c-0.414,0.414-0.827,0.827-1.241,1.241c-0.414,0.413-0.827,0.827-1.241,0.827
	s-1.241,0-1.654,0.413c-0.414,0.414-0.827,1.241-1.654,1.654c-0.414,0.414-1.241,0.414-2.068,0.827
	c-0.827,0.414-1.241,0.827-1.654,1.654c-0.414,0.414-0.414,0.827-0.827,1.241c-0.414,0.413-1.241,0-1.654,0.413
	c-0.827,0-1.241,0.414-2.068,0.827c-0.414,0.414-1.241,0.827-1.654,1.241c-0.414,0.413-0.827,1.24-1.241,1.24s-0.827,0-1.241,0
	c0,0,0,0,0,0.414c-0.413,0.413-0.413,0.413-0.827,0.827c-0.413,0.413-0.827,0.827-1.24,1.24c0,0,0,0.414-0.414,0.827
	c-0.413,0.414-0.827,0.414-1.24,0.827c-0.414,0.414-0.827,0.414-1.654,0.827c-0.414,0-0.827,0.414-1.241,0.827
	c-0.827,0.414-1.654,0.827-2.481,1.241c-0.414,0-0.414,0.413-0.827,0.413c0,0-0.414,0-0.414,0.414c-0.414,0-0.414,0.413-0.827,0.413
	c0,0-0.414,0-0.827,0s-0.827,0.413-1.241,0.413s-0.414,0-0.827,0.414c-0.414,0-0.827,0.413-1.241,0.413s-1.241,0-1.654,0
	c-0.827,0-1.654,0.414-2.481,0.414s-1.654,0.413-2.068,0.413c-1.654,0.414-3.309,0.414-4.549,1.241
	c-1.241,0.413-2.068,1.654-3.309,2.067c-1.654,0.414-3.309,0-4.963-0.413c-1.241,0-2.068-0.414-3.309,0
	c-0.414,0-0.827,0.413-0.827,0.413c-0.827,0.414-1.241,0.827-2.068,1.241c-0.827,0-1.654-0.414-2.481,0
	c-0.827,0-1.241,0.413-2.068,0.413c-0.414,0.414-1.241,0.827-1.654,0.827c-0.827,0-1.241,0-2.068,0
	c-1.654,0-3.722-0.827-4.962-0.413c-0.827,0.413-1.241,0.827-2.068,1.24c-0.827,0.414-1.654,0-2.481,0c-0.827-0.413-2.895,0-2.895,0
	h-0.414h-0.414c-0.414-0.413-0.414-0.827-0.414-0.827c-0.414-0.413-0.414-0.827-0.827-1.24c-0.414-0.414-0.414-0.827-0.827-1.241
	c-0.414-0.413-0.827-0.827-1.241-1.24c-0.827-0.827-1.241-3.309-0.827-4.549c0-0.414,0.414-0.828,0.827-1.241l0.414-0.413v-0.414
	l0.414-0.413c0,0,0-0.414,0-0.827c0-0.414,0-0.827,0.414-1.241c0-0.413,0.414-0.827,0.414-0.827l0.414-0.413
	c0,0,0-0.414,0.414-0.414c0-0.413,0.414-0.827,0.827-1.24c0-0.414,0-0.827,0-1.241c0-0.827,0.827-2.481-0.827-2.481
	c-0.414,0-2.481,0.414-2.895,0.827c-0.827,0-1.654,0-2.068,0.414c-0.414,0.413-0.827,0.827-1.241,1.24
	c-0.827,0.414-1.654,0.414-2.481,1.241c-0.414,0.413-0.414,0.413-1.241,0.827c-0.414,0-1.241,0-1.654,0c0,0-0.414-2.481-0.414-2.896
	c-0.414-1.654-1.654-2.481-2.068-4.136c0-0.413,0-0.827,0-1.654c0-0.413-0.414-0.827-0.414-1.24l-0.414-0.414
	c0-0.413,0-0.413,0-0.827c0-0.413-0.414-0.827-0.414-0.827c-0.414-1.24-0.414-2.895-0.827-4.136
	c-0.414-0.827-0.414-2.067-0.414-2.895s-0.414-1.241-0.414-1.654c0-0.414,0-1.241,0-1.654c0-0.414-0.414-0.827-0.414-1.241
	c0-0.413,0-0.827,0.414-1.24c0-0.827,0.414-2.068,0.414-2.896s0-1.654-0.414-2.895c-0.414-0.827-0.827-1.654-0.827-2.481
	c0-0.414,0.414-0.827,0.414-1.241c0.414-0.413,0.414-0.827,0.414-1.24c0-0.827,0.414-1.241,0.827-2.068
	c0.414-0.413,0.414-1.24,0.414-1.654c0.414-0.827,0.827-1.654,0.827-2.481c0-1.24,0-2.067,0.414-2.895
	c0.414-0.413,2.068-1.24,2.068-1.654c0.414-0.827,0.827-2.067,1.241-2.895c0.827,0,1.241,0,2.068,0.413
	c0.827,0.414,0.827,0.827,1.654,1.241c0.414,0.413,0.414,0.413,0.827,0.827c0.827,0,1.241,0,2.068,0
	c0.414,0,0.827,0.413,0.827,0.827c0.414,0,0.827,0,0.827,0.413l0.414,0.413c0.414,0,0.827,0.414,0.827,0.414
	c0.414,0,0.414,0,0.827,0s1.241,0.413,1.654,0c0,0,0-0.414,0.414-0.414l0.414-0.413c0.414-0.413,0-0.827,0-1.241
	c0-0.413,0-0.413-0.414-0.826c0-0.414,0-0.414,0-0.827c0-0.414,0-0.827-0.414-1.241c-0.414-0.413-0.827-0.827-0.827-1.24
	l-0.414-0.414c-0.414-0.413-0.414-0.413-0.827-0.413c0.414-4.136,0.414-4.963-0.414-5.79c-0.414-0.414-0.414-0.414-0.827-1.241
	c0-0.413-0.414-1.24-0.414-1.654c0,0,0,0,0-0.413c0,0,0-0.414,0.414-0.414c0-0.413,0-0.827,0-1.24c0-0.827,0.414-1.241,0.827-1.654
	c0.827,0,0.827,0,0.827,0c0-0.414,0-0.827,0.414-1.241c0.414-0.413,0.827-1.24,1.241-1.654c0.414-0.827,0-1.24,0.827-2.067
	c0.827-0.414,2.068-0.827,2.895-0.827c2.481,0.413,4.136,0.827,6.617,0.413c0.827,0,1.241-0.413,2.068,0
	c0.827,0.414,1.24,0.827,2.067,0.827c1.241,0,2.481-0.413,4.136-0.413c0.827,0,1.654,0.413,2.895,0.413l0.414,0.414
	c0,0,0.414,0,0.827,0c0.827,0,0.827,0.413,1.654,0.413s1.241-0.413,2.068-0.413c0.414,0,0.827,0.413,1.241,0.413s0.827,0,1.241,0
	c1.241,0,2.068,1.654,2.895,2.068c0.414,0.413,0.827,0.413,1.654,0.413c0.414,0,1.241,0,1.654,0s1.241,0,1.241-0.413
	c0.414-0.414,0.827-0.414,1.241-0.414c0.827,0,2.068,0.414,2.895,0.827c0.827,0.414,1.241,0.827,2.068,0.827s1.654,0,2.481,0.827
	c0.414,0.414,0.414,0.414,0.827,0.827c0.414,0.414,0.827,0.414,0.827,0.827c0.414,0.414,0.827,0.414,1.241,0.414
	c0.414,0.413,0.827,0.413,1.241,0.413s0.827,0,1.241,0s0.827,0.827,1.241,0.827c0.827,0.827,1.241,0.414,2.068,0.827
	c0.414,0,0.414,0.414,0.827,0.827l0.414,0.413c0,0,0.414,0,0.414,0.414l0.414,0.414c0,0,0.414,0,0.414,0.413
	c0.827,0.413,1.654,0.413,2.068,1.24c0.414,0.414,0.827,0.827,1.241,0.827s0.414,0.414,0.827,0.827
	c0.414,0.414,0.414,0.414,0.827,0.414s0.414,0.413,0.827,0.827c0.827,0.413,2.068,0.413,2.896,0.413c0.413,0,0.827,0,1.24,0.414
	c0.414,0,0.414,0.413,0.827,0.413c0.827,0.827,1.241,0.827,2.068,0.827c0.414,0,0.414,0,0.827,0.414
	c0.414,0.413,1.241,0.827,1.654,1.654c0.414,0.413,0.827,0.827,1.241,1.24c0.414,0.414,0.414,0.414,0.827,0.414s0.827,0,1.241,0
	c0.414,0.413,0.827,0.827,1.241,0.827c0.827,0.827,1.241,1.24,1.654,2.067s0.827,2.068,1.654,2.068c0.414,0,0.827,0,0.827,0.413
	c0.414,0.414,0.414,0.414,0.827,0.827c0.414,0.414,0.414,0.414,0.827,0.414s0.414,0.413,0.827,0.413
	c0.414,0.414,0.827,0.414,1.241,0.414c0.414,0.413,0.827,0.413,1.241,0.827c0.414,0.413,0.827,0.827,0.827,1.24
	c0.414,0.827,0.827,1.241,1.654,2.068c0.414,0.827,1.241,1.24,1.654,2.067c0.414,0.414,0.827,0.827,1.241,0.827
	c0.414,0.414,0.827,0.827,1.241,1.241c0.414,0.413,0.414,0.827,0.414,1.24C205.958,424.736,205.958,425.563,205.544,426.391z"/>
<g>
	
		<linearGradient id="SVGID_5_" gradientUnits="userSpaceOnUse" x1="-15.5972" y1="745.3799" x2="6.067" y2="745.3799" gradientTransform="matrix(4.1357 0 0 -4.1357 114.4322 3310.9631)">
		<stop  offset="0" style="stop-color:#F8EAE3"/>
		<stop  offset="0.0471" style="stop-color:#F8E9E1"/>
		<stop  offset="0.2993" style="stop-color:#F7E5DA"/>
		<stop  offset="1" style="stop-color:#F7E4D8"/>
	</linearGradient>
	<path fill="url(#SVGID_5_)" d="M80.232,299.425h-30.19V157.157h89.745v25.228H80.232v35.98h54.591v24.814H80.232V299.425z"/>
	
		<linearGradient id="SVGID_6_" gradientUnits="userSpaceOnUse" x1="8.395" y1="745.3799" x2="15.7121" y2="745.3799" gradientTransform="matrix(4.1357 0 0 -4.1357 114.4322 3310.9631)">
		<stop  offset="0" style="stop-color:#F8EAE3"/>
		<stop  offset="0.0471" style="stop-color:#F8E9E1"/>
		<stop  offset="0.2993" style="stop-color:#F7E5DA"/>
		<stop  offset="1" style="stop-color:#F7E4D8"/>
	</linearGradient>
	<path fill="url(#SVGID_6_)" d="M179.489,299.425h-30.19V157.157h30.19V299.425z"/>
	
		<linearGradient id="SVGID_7_" gradientUnits="userSpaceOnUse" x1="19.6304" y1="745.3799" x2="48.0303" y2="745.3799" gradientTransform="matrix(4.1357 0 0 -4.1357 114.4322 3310.9631)">
		<stop  offset="0" style="stop-color:#F8EAE3"/>
		<stop  offset="0.0471" style="stop-color:#F8E9E1"/>
		<stop  offset="0.2993" style="stop-color:#F7E5DA"/>
		<stop  offset="1" style="stop-color:#F7E4D8"/>
	</linearGradient>
	<path fill="url(#SVGID_7_)" d="M278.333,299.425l-55.005-100.498v100.498h-27.709V157.157H231.6l53.764,100.911V157.157h27.709
		v142.268H278.333L278.333,299.425z"/>
	
		<linearGradient id="SVGID_8_" gradientUnits="userSpaceOnUse" x1="52.0303" y1="745.3799" x2="81.1542" y2="745.3799" gradientTransform="matrix(4.1357 0 0 -4.1357 114.4322 3310.9631)">
		<stop  offset="0" style="stop-color:#F8EAE3"/>
		<stop  offset="0.0471" style="stop-color:#F8E9E1"/>
		<stop  offset="0.2993" style="stop-color:#F7E5DA"/>
		<stop  offset="1" style="stop-color:#F7E4D8"/>
	</linearGradient>
	<path fill="url(#SVGID_8_)" d="M329.615,299.425V157.157h50.042c49.215,0,70.721,26.468,70.721,69.066
		c0,43.425-23.16,73.202-74.029,73.202H329.615z M374.695,275.024c33.085,0,44.251-17.784,44.251-47.147
		c0-35.567-13.647-46.32-42.184-46.32h-16.957v93.467H374.695z"/>
</g>
<linearGradient id="SVGID_9_" gradientUnits="userSpaceOnUse" x1="87.0303" y1="745.3799" x2="117.5303" y2="745.3799" gradientTransform="matrix(4.1357 0 0 -4.1357 114.4322 3310.9631)">
	<stop  offset="0" style="stop-color:#F8EAE3"/>
	<stop  offset="0.0471" style="stop-color:#F8E9E1"/>
	<stop  offset="0.2993" style="stop-color:#F7E5DA"/>
	<stop  offset="1" style="stop-color:#F7E4D8"/>
</linearGradient>
<path fill="url(#SVGID_9_)" d="M554.185,299.425H523.58v-53.351l-49.215-88.917h33.086l31.431,60.795h0.827l30.19-60.795h30.604
	l-46.319,88.504V299.425z"/>
<linearGradient id="SVGID_10_" gradientUnits="userSpaceOnUse" x1="114.0303" y1="745.4795" x2="146.5742" y2="745.4795" gradientTransform="matrix(4.1357 0 0 -4.1357 114.4322 3310.9631)">
	<stop  offset="0" style="stop-color:#F8EAE3"/>
	<stop  offset="0.0471" style="stop-color:#F8E9E1"/>
	<stop  offset="0.2993" style="stop-color:#F7E5DA"/>
	<stop  offset="1" style="stop-color:#F7E4D8"/>
</linearGradient>
<path fill="url(#SVGID_10_)" d="M586.029,228.705c0-42.185,23.16-74.443,69.479-74.443c46.32,0,65.344,31.845,65.344,71.548
	c0,46.32-22.332,75.683-68.238,75.683C605.467,301.906,586.029,271.302,586.029,228.705z M689.422,227.877
	c0-33.086-12.407-47.561-34.74-47.561c-23.16,0-37.635,15.302-37.635,47.975c0,33.913,13.647,47.974,35.98,47.974
	C674.946,276.265,689.422,263.031,689.422,227.877z"/>
<linearGradient id="SVGID_11_" gradientUnits="userSpaceOnUse" x1="148.6304" y1="745.1797" x2="176.0303" y2="745.1797" gradientTransform="matrix(4.1357 0 0 -4.1357 114.4322 3310.9631)">
	<stop  offset="0" style="stop-color:#F8EAE3"/>
	<stop  offset="0.0471" style="stop-color:#F8E9E1"/>
	<stop  offset="0.2993" style="stop-color:#F7E5DA"/>
	<stop  offset="1" style="stop-color:#F7E4D8"/>
</linearGradient>
<path fill="url(#SVGID_11_)" d="M812.252,243.593v-86.85h30.19v90.985c0,37.635-21.919,53.764-57.486,53.764
	c-39.289,0-55.832-17.37-55.832-54.591v-89.745h30.604v86.022c0,22.333,5.377,33.086,26.882,33.086
	C806.049,276.265,812.252,266.753,812.252,243.593z"/>
<linearGradient id="SVGID_12_" gradientUnits="userSpaceOnUse" x1="179.7793" y1="745.3799" x2="206.4319" y2="745.3799" gradientTransform="matrix(4.1357 0 0 -4.1357 114.4322 3310.9631)">
	<stop  offset="0" style="stop-color:#F8EAE3"/>
	<stop  offset="0.0471" style="stop-color:#F8E9E1"/>
	<stop  offset="0.2993" style="stop-color:#F7E5DA"/>
	<stop  offset="1" style="stop-color:#F7E4D8"/>
</linearGradient>
<path fill="url(#SVGID_12_)" d="M968.168,299.425h-32.672l-28.123-54.178h-19.438v54.178h-30.19V157.157h55.418
	c35.567,0,47.147,19.024,47.147,40.116c0,21.092-9.926,33.913-24.401,40.53L968.168,299.425z M903.651,221.674
	c14.062,0,25.641-4.963,25.641-21.506c0-13.648-8.271-18.61-24.4-18.61h-16.543v40.116H903.651z"/>
</svg>
