<?xml version="1.0" encoding="utf-8"?>
<!-- Generator: Adobe Illustrator 18.0.0, SVG Export Plug-In . SVG Version: 6.00 Build 0)  -->
<!DOCTYPE svg PUBLIC "-//W3C//DTD SVG 1.1//EN" "http://www.w3.org/Graphics/SVG/1.1/DTD/svg11.dtd">
<svg version="1.1" id="Layer_1" xmlns="http://www.w3.org/2000/svg" xmlns:xlink="http://www.w3.org/1999/xlink" x="0px" y="0px"
	 viewBox="0 0 247.6 159.5" enable-background="new 0 0 247.6 159.5" xml:space="preserve">
<path fill="#FFFFFF" d="M94.4,67.4l24,67.9h-15.8l-5.6-16.5H74.3l-5.3,16.5H54.2l22.2-67.9H94.4z M85.5,81h-0.4l-8.3,26.3h17.2
	L85.5,81z"/>
<path fill="#FFFFFF" d="M175.6,135.2H160l-13.4-25.8h-9.3v25.8H123V67.4h22.7c19.5,0,26.2,9.1,26.2,19.1c0,10.1-4.7,16.1-11.7,19.4
	L175.6,135.2z M143.1,98.1c6.8,0,13.9-2.4,13.9-10.2c0-6.5-5.5-8.9-13.3-8.9h-6.4v19.1H143.1z"/>
<path fill="#FFFFFF" d="M195.2,96.4l24.1-29.1h15.4l-22.6,28.2l23.1,39.7h-16.9l-16.5-28.4l-6.6,7.1v21.3h-14.3V67.4h14.3V96.4z"/>
<path fill="#FFFFFF" d="M35.8,67.4H12.1v67.9h14.3v-21.9h5.4c17.7,0,28.5-10.2,28.5-23.6C60.4,78.8,53.1,67.4,35.8,67.4z M49.7,90
	c0,0.2-0.1,0.3-0.2,0.5c-0.1,0.2-0.2,0.3-0.3,0.5c-0.1,0.1-0.1,0.3-0.2,0.4c-0.1,0.1-0.2,0.2-0.3,0.3c-0.1,0.1-0.2,0.3-0.3,0.4
	c-0.1,0.1-0.1,0.2-0.2,0.3c-0.1,0.1-0.3,0.2-0.4,0.4c-0.1,0.1-0.1,0.1-0.2,0.1c-0.1,0-0.2,0-0.4,0c-0.2,0.1-0.3,0.3-0.4,0.5
	c-0.1,0.1-0.2,0.2-0.3,0.3c-0.1,0.1-0.2,0.2-0.3,0.2c-0.1,0-0.3,0-0.4,0.1c-0.1,0.1-0.2,0.3-0.4,0.4c-0.1,0.1-0.3,0.1-0.5,0.2
	c-0.2,0.1-0.3,0.2-0.4,0.4c-0.1,0.1-0.1,0.2-0.2,0.3c-0.1,0.1-0.3,0-0.4,0.1c-0.2,0-0.3,0.1-0.5,0.2c-0.1,0.1-0.3,0.2-0.4,0.3
	c-0.1,0.1-0.2,0.3-0.3,0.3c-0.1,0-0.2,0-0.3,0c0,0,0,0,0,0.1c-0.1,0.1-0.1,0.1-0.2,0.2c-0.1,0.1-0.2,0.2-0.3,0.3c0,0,0,0.1-0.1,0.2
	c-0.1,0.1-0.2,0.1-0.3,0.2c-0.1,0.1-0.2,0.1-0.4,0.2c-0.1,0-0.2,0.1-0.3,0.2c-0.2,0.1-0.4,0.2-0.6,0.3c-0.1,0-0.1,0.1-0.2,0.1
	c0,0-0.1,0-0.1,0.1c-0.1,0-0.1,0.1-0.2,0.1c0,0-0.1,0-0.2,0c-0.1,0-0.2,0.1-0.3,0.1c-0.1,0-0.1,0-0.2,0.1c-0.1,0-0.2,0.1-0.3,0.1
	c-0.1,0-0.3,0-0.4,0c-0.2,0-0.4,0.1-0.6,0.1c-0.2,0-0.4,0.1-0.5,0.1c-0.4,0.1-0.8,0.1-1.1,0.3c-0.3,0.1-0.5,0.4-0.8,0.5
	c-0.4,0.1-0.8,0-1.2-0.1c-0.3,0-0.5-0.1-0.8,0c-0.1,0-0.2,0.1-0.2,0.1c-0.2,0.1-0.3,0.2-0.5,0.3c-0.2,0-0.4-0.1-0.6,0
	c-0.2,0-0.3,0.1-0.5,0.1c-0.1,0.1-0.3,0.2-0.4,0.2c-0.2,0-0.3,0-0.5,0c-0.4,0-0.9-0.2-1.2-0.1c-0.2,0.1-0.3,0.2-0.5,0.3
	c-0.2,0.1-0.4,0-0.6,0c-0.2-0.1-0.7,0-0.7,0c0,0-0.1,0-0.1,0c0,0-0.1,0-0.1,0c-0.1-0.1-0.1-0.2-0.1-0.2c-0.1-0.1-0.1-0.2-0.2-0.3
	c-0.1-0.1-0.1-0.2-0.2-0.3c-0.1-0.1-0.2-0.2-0.3-0.3c-0.2-0.2-0.3-0.8-0.2-1.1c0-0.1,0.1-0.2,0.2-0.3c0,0,0.1-0.1,0.1-0.1
	c0,0,0-0.1,0-0.1c0,0,0.1-0.1,0.1-0.1c0,0,0-0.1,0-0.2c0-0.1,0-0.2,0.1-0.3c0-0.1,0.1-0.2,0.1-0.2c0,0,0.1-0.1,0.1-0.1
	c0,0,0-0.1,0.1-0.1c0-0.1,0.1-0.2,0.2-0.3c0-0.1,0-0.2,0-0.3c0-0.2,0.2-0.6-0.2-0.6c-0.1,0-0.6,0.1-0.7,0.2c-0.2,0-0.4,0-0.5,0.1
	c-0.1,0.1-0.2,0.2-0.3,0.3c-0.2,0.1-0.4,0.1-0.6,0.3c-0.1,0.1-0.1,0.1-0.3,0.2c-0.1,0-0.3,0-0.4,0c0,0-0.1-0.6-0.1-0.7
	c-0.1-0.4-0.4-0.6-0.5-1c0-0.1,0-0.2,0-0.4c0-0.1-0.1-0.2-0.1-0.3c0,0-0.1-0.1-0.1-0.1c0-0.1,0-0.1,0-0.2c0-0.1-0.1-0.2-0.1-0.2
	c-0.1-0.3-0.1-0.7-0.2-1c-0.1-0.2-0.1-0.5-0.1-0.7c0-0.2-0.1-0.3-0.1-0.4c0-0.1,0-0.3,0-0.4c0-0.1-0.1-0.2-0.1-0.3
	c0-0.1,0-0.2,0.1-0.3c0-0.2,0.1-0.5,0.1-0.7c0-0.2,0-0.4-0.1-0.7c-0.1-0.2-0.2-0.4-0.2-0.6c0-0.1,0.1-0.2,0.1-0.3
	c0.1-0.1,0.1-0.2,0.1-0.3c0-0.2,0.1-0.3,0.2-0.5c0.1-0.1,0.1-0.3,0.1-0.4c0.1-0.2,0.2-0.4,0.2-0.6c0-0.3,0-0.5,0.1-0.7
	c0.1-0.1,0.5-0.3,0.5-0.4c0.1-0.2,0.2-0.5,0.3-0.7c0.2,0,0.3,0,0.5,0.1c0.2,0.1,0.2,0.2,0.4,0.3c0.1,0.1,0.1,0.1,0.2,0.2
	c0.2,0,0.3,0,0.5,0c0.1,0,0.2,0.1,0.2,0.2c0.1,0,0.2,0,0.2,0.1c0,0,0.1,0.1,0.1,0.1c0.1,0,0.2,0.1,0.2,0.1c0.1,0,0.1,0,0.2,0
	c0.1,0,0.3,0.1,0.4,0c0,0,0-0.1,0.1-0.1c0,0,0.1-0.1,0.1-0.1c0.1-0.1,0-0.2,0-0.3c0-0.1,0-0.1-0.1-0.2c0-0.1,0-0.1,0-0.2
	c0-0.1,0-0.2-0.1-0.3c-0.1-0.1-0.2-0.2-0.2-0.3c0,0-0.1-0.1-0.1-0.1c-0.1-0.1-0.1-0.1-0.2-0.1C27,83,27,82.8,26.8,82.6
	c-0.1-0.1-0.1-0.1-0.2-0.3c0-0.1-0.1-0.3-0.1-0.4c0,0,0,0,0-0.1c0,0,0-0.1,0.1-0.1c0-0.1,0-0.2,0-0.3c0-0.2,0.1-0.3,0.2-0.4
	C27,81,27,81,27,81c0-0.1,0-0.2,0.1-0.3c0.1-0.1,0.2-0.3,0.3-0.4c0.1-0.2,0-0.3,0.2-0.5c0.2-0.1,0.5-0.2,0.7-0.2
	c0.6,0.1,1,0.2,1.6,0.1c0.2,0,0.3-0.1,0.5,0c0.2,0.1,0.3,0.2,0.5,0.2c0.3,0,0.6-0.1,1-0.1c0.2,0,0.4,0.1,0.7,0.1
	c0,0,0.1,0.1,0.1,0.1c0,0,0.1,0,0.2,0c0.2,0,0.2,0.1,0.4,0.1c0.2,0,0.3-0.1,0.5-0.1c0.1,0,0.2,0.1,0.3,0.1c0.1,0,0.2,0,0.3,0
	c0.3,0,0.5,0.4,0.7,0.5c0.1,0.1,0.2,0.1,0.4,0.1c0.1,0,0.3,0,0.4,0c0.1,0,0.3,0,0.3-0.1c0.1-0.1,0.2-0.1,0.3-0.1
	c0.2,0,0.5,0.1,0.7,0.2c0.2,0.1,0.3,0.2,0.5,0.2c0.2,0,0.4,0,0.6,0.2c0.1,0.1,0.1,0.1,0.2,0.2c0.1,0.1,0.2,0.1,0.2,0.2
	c0.1,0.1,0.2,0.1,0.3,0.1c0.1,0.1,0.2,0.1,0.3,0.1c0.1,0,0.2,0,0.3,0c0.1,0,0.2,0.2,0.3,0.2c0.2,0.2,0.3,0.1,0.5,0.2
	c0.1,0,0.1,0.1,0.2,0.2c0,0,0.1,0.1,0.1,0.1c0,0,0.1,0,0.1,0.1c0,0,0.1,0.1,0.1,0.1c0,0,0.1,0,0.1,0.1c0.2,0.1,0.4,0.1,0.5,0.3
	c0.1,0.1,0.2,0.2,0.3,0.2c0.1,0,0.1,0.1,0.2,0.2c0.1,0.1,0.1,0.1,0.2,0.1c0.1,0,0.1,0.1,0.2,0.2c0.2,0.1,0.5,0.1,0.7,0.1
	c0.1,0,0.2,0,0.3,0.1c0.1,0,0.1,0.1,0.2,0.1c0.2,0.2,0.3,0.2,0.5,0.2c0.1,0,0.1,0,0.2,0.1c0.1,0.1,0.3,0.2,0.4,0.4
	c0.1,0.1,0.2,0.2,0.3,0.3c0.1,0.1,0.1,0.1,0.2,0.1c0.1,0,0.2,0,0.3,0c0.1,0.1,0.2,0.2,0.3,0.2c0.2,0.2,0.3,0.3,0.4,0.5
	c0.1,0.2,0.2,0.5,0.4,0.5c0.1,0,0.2,0,0.2,0.1c0.1,0.1,0.1,0.1,0.2,0.2c0.1,0.1,0.1,0.1,0.2,0.1c0.1,0,0.1,0.1,0.2,0.1
	c0.1,0.1,0.2,0.1,0.3,0.1c0.1,0.1,0.2,0.1,0.3,0.2c0.1,0.1,0.2,0.2,0.2,0.3c0.1,0.2,0.2,0.3,0.4,0.5c0.1,0.2,0.3,0.3,0.4,0.5
	c0.1,0.1,0.2,0.2,0.3,0.2c0.1,0.1,0.2,0.2,0.3,0.3c0.1,0.1,0.1,0.2,0.1,0.3C49.8,89.6,49.8,89.8,49.7,90z"/>
<g>
	<path fill="#FFFFFF" d="M19.4,59.3h-7.3V24.9h21.7V31H19.4v8.7h13.2v6H19.4V59.3z"/>
	<path fill="#FFFFFF" d="M43.4,59.3h-7.3V24.9h7.3V59.3z"/>
	<path fill="#FFFFFF" d="M67.3,59.3L54,35v24.3h-6.7V24.9H56l13,24.4V24.9h6.7v34.4H67.3z"/>
	<path fill="#FFFFFF" d="M79.7,59.3V24.9h12.1c11.9,0,17.1,6.4,17.1,16.7c0,10.5-5.6,17.7-17.9,17.7H79.7z M90.6,53.4
		c8,0,10.7-4.3,10.7-11.4c0-8.6-3.3-11.2-10.2-11.2H87v22.6H90.6z"/>
</g>
<path fill="#FFFFFF" d="M134,59.3h-7.4V46.4l-11.9-21.5h8l7.6,14.7h0.2l7.3-14.7h7.4L134,46.3V59.3z"/>
<path fill="#FFFFFF" d="M141.7,42.2c0-10.2,5.6-18,16.8-18c11.2,0,15.8,7.7,15.8,17.3c0,11.2-5.4,18.3-16.5,18.3
	C146.4,59.9,141.7,52.5,141.7,42.2z M166.7,42c0-8-3-11.5-8.4-11.5c-5.6,0-9.1,3.7-9.1,11.6c0,8.2,3.3,11.6,8.7,11.6
	C163.2,53.7,166.7,50.5,166.7,42z"/>
<path fill="#FFFFFF" d="M196.4,45.8v-21h7.3v22c0,9.1-5.3,13-13.9,13c-9.5,0-13.5-4.2-13.5-13.2V24.9h7.4v20.8c0,5.4,1.3,8,6.5,8
	C194.9,53.7,196.4,51.4,196.4,45.8z"/>
<path fill="#FFFFFF" d="M234.1,59.3h-7.9l-6.8-13.1h-4.7v13.1h-7.3V24.9h13.4c8.6,0,11.4,4.6,11.4,9.7c0,5.1-2.4,8.2-5.9,9.8
	L234.1,59.3z M218.5,40.5c3.4,0,6.2-1.2,6.2-5.2c0-3.3-2-4.5-5.9-4.5h-4v9.7H218.5z"/>
</svg>
