<?xml version="1.0" encoding="utf-8"?>
<!-- Generator: Adobe Illustrator 15.0.0, SVG Export Plug-In . SVG Version: 6.00 Build 0)  -->
<!DOCTYPE svg PUBLIC "-//W3C//DTD SVG 1.1//EN" "http://www.w3.org/Graphics/SVG/1.1/DTD/svg11.dtd">
<svg version="1.1" id="Layer_1" xmlns="http://www.w3.org/2000/svg" xmlns:xlink="http://www.w3.org/1999/xlink" x="0px" y="0px"
	 width="1417.429px" height="991.848px" viewBox="0 0 1417.429 991.848" enable-background="new 0 0 1417.429 991.848"
	 xml:space="preserve">
<g id="Layer_2">
</g>
<g id="Layer_1_1_" display="none">
	
		<image display="inline" overflow="visible" enable-background="new    " width="1578" height="540" xlink:href="450C88DD.jpeg"  transform="matrix(0.8996 0 0 0.8986 -0.6221 512.7646)">
	</image>
</g>
<g id="Layer_10">
</g>
<g id="Layer_9">
</g>
<g id="Layer_7">
</g>
<g id="river">
</g>
<g id="Layer_4">
</g>
<g id="Layer_6">
	<g id="Layer_8">
	</g>
</g>
<g id="bushes">
</g>
<g id="Layer_11">
</g>
<g id="rocks">
</g>
<g>
	<g>
		<g id="Layer_13">
			<defs>
				<rect id="SVGID_1_" y="3" width="1417.429" height="988.847"/>
			</defs>
			<clipPath id="SVGID_2_">
				<use xlink:href="#SVGID_1_"  overflow="visible"/>
			</clipPath>
			<g clip-path="url(#SVGID_2_)">
				<g>
					<defs>
						<rect id="SVGID_3_" x="-1.98" y="-12.365" width="1420.229" height="999.867"/>
					</defs>
					<defs>
						<rect id="SVGID_4_" x="-1.98" y="-12.365" width="1420.229" height="999.867"/>
					</defs>
					<defs>
						<rect id="SVGID_5_" x="-1.98" y="-12.365" width="1420.229" height="999.867"/>
					</defs>
					<defs>
						<rect id="SVGID_6_" x="-1.98" y="-12.365" width="1420.229" height="999.867"/>
					</defs>
					<defs>
						<rect id="SVGID_7_" x="-1.98" y="-12.365" width="1420.229" height="999.867"/>
					</defs>
					<defs>
						<rect id="SVGID_8_" x="-1.98" y="-12.365" width="1420.229" height="999.867"/>
					</defs>
					<defs>
						<rect id="SVGID_9_" x="-1.98" y="-12.365" width="1420.229" height="999.867"/>
					</defs>
					<defs>
						<rect id="SVGID_10_" x="-1.98" y="-12.365" width="1420.229" height="999.867"/>
					</defs>
					<defs>
						<rect id="SVGID_11_" x="-1.98" y="-12.365" width="1420.229" height="999.867"/>
					</defs>
					<defs>
						<rect id="SVGID_12_" x="-1.98" y="-12.365" width="1420.229" height="999.867"/>
					</defs>
					<defs>
						<rect id="SVGID_13_" x="-1.98" y="-12.365" width="1420.229" height="999.867"/>
					</defs>
					<defs>
						<rect id="SVGID_14_" x="-1.98" y="-12.365" width="1420.229" height="999.867"/>
					</defs>
					<defs>
						<rect id="SVGID_15_" x="-1.98" y="-12.365" width="1420.229" height="999.867"/>
					</defs>
					<defs>
						<rect id="SVGID_16_" x="-1.98" y="-12.365" width="1420.229" height="999.867"/>
					</defs>
					<defs>
						<rect id="SVGID_17_" x="-1.98" y="-12.365" width="1420.229" height="999.867"/>
					</defs>
					<defs>
						<rect id="SVGID_18_" x="-1.98" y="-12.365" width="1420.229" height="999.867"/>
					</defs>
					<defs>
						<rect id="SVGID_19_" x="-1.98" y="-12.365" width="1420.229" height="999.867"/>
					</defs>
					<defs>
						<rect id="SVGID_20_" x="-1.98" y="-12.365" width="1420.229" height="999.867"/>
					</defs>
					<defs>
						<rect id="SVGID_21_" x="-1.98" y="-12.365" width="1420.229" height="999.867"/>
					</defs>
					<defs>
						<rect id="SVGID_22_" x="-1.98" y="-12.365" width="1420.229" height="999.867"/>
					</defs>
					<defs>
						<rect id="SVGID_23_" x="-1.98" y="-12.365" width="1420.229" height="999.867"/>
					</defs>
					<defs>
						<rect id="SVGID_24_" x="-1.98" y="-12.365" width="1420.229" height="999.867"/>
					</defs>
					<defs>
						<rect id="SVGID_25_" x="-1.98" y="-12.365" width="1420.229" height="999.867"/>
					</defs>
					<defs>
						<rect id="SVGID_26_" x="-1.98" y="-12.365" width="1420.229" height="999.867"/>
					</defs>
					<defs>
						<rect id="SVGID_27_" x="-1.98" y="-12.365" width="1420.229" height="999.867"/>
					</defs>
					<defs>
						<rect id="SVGID_28_" x="-1.98" y="-12.365" width="1420.229" height="999.867"/>
					</defs>
					<defs>
						<rect id="SVGID_29_" x="-1.98" y="-12.365" width="1420.229" height="999.867"/>
					</defs>
					<defs>
						<rect id="SVGID_30_" x="-1.98" y="-12.365" width="1420.229" height="999.867"/>
					</defs>
					<defs>
						<rect id="SVGID_31_" x="-1.98" y="-12.365" width="1420.229" height="999.867"/>
					</defs>
					<defs>
						<rect id="SVGID_32_" x="-1.98" y="-12.365" width="1420.229" height="999.867"/>
					</defs>
					<defs>
						<rect id="SVGID_33_" x="-1.98" y="-12.365" width="1420.229" height="999.867"/>
					</defs>
					<defs>
						<rect id="SVGID_34_" x="-1.98" y="-12.365" width="1420.229" height="999.867"/>
					</defs>
					<defs>
						<rect id="SVGID_35_" x="-1.98" y="-12.365" width="1420.229" height="999.867"/>
					</defs>
					<defs>
						<rect id="SVGID_36_" x="-1.98" y="-12.365" width="1420.229" height="999.867"/>
					</defs>
					<defs>
						<rect id="SVGID_37_" x="-1.98" y="-12.365" width="1420.229" height="999.867"/>
					</defs>
					<defs>
						<rect id="SVGID_38_" x="-1.98" y="-12.365" width="1420.229" height="999.867"/>
					</defs>
					<defs>
						<rect id="SVGID_39_" x="-1.98" y="-12.365" width="1420.229" height="999.867"/>
					</defs>
					<defs>
						<rect id="SVGID_40_" x="-1.98" y="-12.365" width="1420.229" height="999.867"/>
					</defs>
					<defs>
						<rect id="SVGID_41_" x="-1.98" y="-12.365" width="1420.229" height="999.867"/>
					</defs>
					<defs>
						<rect id="SVGID_42_" x="-1.98" y="-12.365" width="1420.229" height="999.867"/>
					</defs>
					<defs>
						<rect id="SVGID_43_" x="-1.98" y="-12.365" width="1420.229" height="999.867"/>
					</defs>
					<defs>
						<rect id="SVGID_44_" x="-1.98" y="-12.365" width="1420.229" height="999.867"/>
					</defs>
					<defs>
						<rect id="SVGID_45_" x="-1.98" y="-12.365" width="1420.229" height="999.867"/>
					</defs>
					<defs>
						<rect id="SVGID_46_" x="-1.98" y="-12.365" width="1420.229" height="999.867"/>
					</defs>
					<defs>
						<rect id="SVGID_47_" x="-1.98" y="-12.365" width="1420.229" height="999.867"/>
					</defs>
					<defs>
						<rect id="SVGID_48_" x="-1.98" y="-12.365" width="1420.229" height="999.867"/>
					</defs>
					<defs>
						<rect id="SVGID_49_" x="-1.98" y="-12.365" width="1420.229" height="999.867"/>
					</defs>
					<defs>
						<rect id="SVGID_50_" x="-1.98" y="-12.365" width="1420.229" height="999.867"/>
					</defs>
					<defs>
						<rect id="SVGID_51_" x="-1.98" y="-12.365" width="1420.229" height="999.867"/>
					</defs>
					<defs>
						<rect id="SVGID_52_" x="-1.98" y="-12.365" width="1420.229" height="999.867"/>
					</defs>
					<defs>
						<rect id="SVGID_53_" x="-1.98" y="-12.365" width="1420.229" height="999.867"/>
					</defs>
					<defs>
						<rect id="SVGID_54_" x="-1.98" y="-12.365" width="1420.229" height="999.867"/>
					</defs>
					<defs>
						<rect id="SVGID_55_" x="-1.98" y="-12.365" width="1420.229" height="999.867"/>
					</defs>
					<defs>
						<rect id="SVGID_56_" x="-1.98" y="-12.365" width="1420.229" height="999.867"/>
					</defs>
					<defs>
						<rect id="SVGID_57_" x="-1.98" y="-12.365" width="1420.229" height="999.867"/>
					</defs>
					<defs>
						<rect id="SVGID_58_" x="-1.98" y="-12.365" width="1420.229" height="999.867"/>
					</defs>
					<defs>
						<rect id="SVGID_59_" x="-1.98" y="-12.365" width="1420.229" height="999.867"/>
					</defs>
					<defs>
						<rect id="SVGID_60_" x="-1.98" y="-12.365" width="1420.229" height="999.867"/>
					</defs>
					<defs>
						<rect id="SVGID_61_" x="-1.98" y="-12.365" width="1420.229" height="999.867"/>
					</defs>
					<defs>
						<rect id="SVGID_62_" x="-1.98" y="-12.365" width="1420.229" height="999.867"/>
					</defs>
					<defs>
						<rect id="SVGID_63_" x="-1.98" y="-12.365" width="1420.229" height="999.867"/>
					</defs>
					<defs>
						<rect id="SVGID_64_" x="-1.98" y="-12.365" width="1420.229" height="999.867"/>
					</defs>
					<defs>
						<rect id="SVGID_65_" x="-1.98" y="-12.365" width="1420.229" height="999.867"/>
					</defs>
					<defs>
						<rect id="SVGID_66_" x="-1.98" y="-12.365" width="1420.229" height="999.867"/>
					</defs>
					<defs>
						<rect id="SVGID_67_" x="-1.98" y="-12.365" width="1420.229" height="999.867"/>
					</defs>
					<defs>
						<rect id="SVGID_68_" x="-1.98" y="-12.365" width="1420.229" height="999.867"/>
					</defs>
					<defs>
						<rect id="SVGID_69_" x="-1.98" y="-12.365" width="1420.229" height="999.867"/>
					</defs>
					<defs>
						<rect id="SVGID_70_" x="-1.98" y="-12.365" width="1420.229" height="999.867"/>
					</defs>
					<defs>
						<rect id="SVGID_71_" x="-1.98" y="-12.365" width="1420.229" height="999.867"/>
					</defs>
					<clipPath id="SVGID_72_">
						<use xlink:href="#SVGID_3_"  overflow="visible"/>
					</clipPath>
					<clipPath id="SVGID_73_" clip-path="url(#SVGID_72_)">
						<use xlink:href="#SVGID_4_"  overflow="visible"/>
					</clipPath>
					<clipPath id="SVGID_74_" clip-path="url(#SVGID_73_)">
						<use xlink:href="#SVGID_5_"  overflow="visible"/>
					</clipPath>
					<clipPath id="SVGID_75_" clip-path="url(#SVGID_74_)">
						<use xlink:href="#SVGID_6_"  overflow="visible"/>
					</clipPath>
					<clipPath id="SVGID_76_" clip-path="url(#SVGID_75_)">
						<use xlink:href="#SVGID_7_"  overflow="visible"/>
					</clipPath>
					<clipPath id="SVGID_77_" clip-path="url(#SVGID_76_)">
						<use xlink:href="#SVGID_8_"  overflow="visible"/>
					</clipPath>
					<clipPath id="SVGID_78_" clip-path="url(#SVGID_77_)">
						<use xlink:href="#SVGID_9_"  overflow="visible"/>
					</clipPath>
					<clipPath id="SVGID_79_" clip-path="url(#SVGID_78_)">
						<use xlink:href="#SVGID_10_"  overflow="visible"/>
					</clipPath>
					<clipPath id="SVGID_80_" clip-path="url(#SVGID_79_)">
						<use xlink:href="#SVGID_11_"  overflow="visible"/>
					</clipPath>
					<clipPath id="SVGID_81_" clip-path="url(#SVGID_80_)">
						<use xlink:href="#SVGID_12_"  overflow="visible"/>
					</clipPath>
					<clipPath id="SVGID_82_" clip-path="url(#SVGID_81_)">
						<use xlink:href="#SVGID_13_"  overflow="visible"/>
					</clipPath>
					<clipPath id="SVGID_83_" clip-path="url(#SVGID_82_)">
						<use xlink:href="#SVGID_14_"  overflow="visible"/>
					</clipPath>
					<clipPath id="SVGID_84_" clip-path="url(#SVGID_83_)">
						<use xlink:href="#SVGID_15_"  overflow="visible"/>
					</clipPath>
					<clipPath id="SVGID_85_" clip-path="url(#SVGID_84_)">
						<use xlink:href="#SVGID_16_"  overflow="visible"/>
					</clipPath>
					<clipPath id="SVGID_86_" clip-path="url(#SVGID_85_)">
						<use xlink:href="#SVGID_17_"  overflow="visible"/>
					</clipPath>
					<clipPath id="SVGID_87_" clip-path="url(#SVGID_86_)">
						<use xlink:href="#SVGID_18_"  overflow="visible"/>
					</clipPath>
					<clipPath id="SVGID_88_" clip-path="url(#SVGID_87_)">
						<use xlink:href="#SVGID_19_"  overflow="visible"/>
					</clipPath>
					<clipPath id="SVGID_89_" clip-path="url(#SVGID_88_)">
						<use xlink:href="#SVGID_20_"  overflow="visible"/>
					</clipPath>
					<clipPath id="SVGID_90_" clip-path="url(#SVGID_89_)">
						<use xlink:href="#SVGID_21_"  overflow="visible"/>
					</clipPath>
					<clipPath id="SVGID_91_" clip-path="url(#SVGID_90_)">
						<use xlink:href="#SVGID_22_"  overflow="visible"/>
					</clipPath>
					<clipPath id="SVGID_92_" clip-path="url(#SVGID_91_)">
						<use xlink:href="#SVGID_23_"  overflow="visible"/>
					</clipPath>
					<clipPath id="SVGID_93_" clip-path="url(#SVGID_92_)">
						<use xlink:href="#SVGID_24_"  overflow="visible"/>
					</clipPath>
					<clipPath id="SVGID_94_" clip-path="url(#SVGID_93_)">
						<use xlink:href="#SVGID_25_"  overflow="visible"/>
					</clipPath>
					<clipPath id="SVGID_95_" clip-path="url(#SVGID_94_)">
						<use xlink:href="#SVGID_26_"  overflow="visible"/>
					</clipPath>
					<clipPath id="SVGID_96_" clip-path="url(#SVGID_95_)">
						<use xlink:href="#SVGID_27_"  overflow="visible"/>
					</clipPath>
					<clipPath id="SVGID_97_" clip-path="url(#SVGID_96_)">
						<use xlink:href="#SVGID_28_"  overflow="visible"/>
					</clipPath>
					<clipPath id="SVGID_98_" clip-path="url(#SVGID_97_)">
						<use xlink:href="#SVGID_29_"  overflow="visible"/>
					</clipPath>
					<clipPath id="SVGID_99_" clip-path="url(#SVGID_98_)">
						<use xlink:href="#SVGID_30_"  overflow="visible"/>
					</clipPath>
					<clipPath id="SVGID_100_" clip-path="url(#SVGID_99_)">
						<use xlink:href="#SVGID_31_"  overflow="visible"/>
					</clipPath>
					<clipPath id="SVGID_101_" clip-path="url(#SVGID_100_)">
						<use xlink:href="#SVGID_32_"  overflow="visible"/>
					</clipPath>
					<clipPath id="SVGID_102_" clip-path="url(#SVGID_101_)">
						<use xlink:href="#SVGID_33_"  overflow="visible"/>
					</clipPath>
					<clipPath id="SVGID_103_" clip-path="url(#SVGID_102_)">
						<use xlink:href="#SVGID_34_"  overflow="visible"/>
					</clipPath>
					<clipPath id="SVGID_104_" clip-path="url(#SVGID_103_)">
						<use xlink:href="#SVGID_35_"  overflow="visible"/>
					</clipPath>
					<clipPath id="SVGID_105_" clip-path="url(#SVGID_104_)">
						<use xlink:href="#SVGID_36_"  overflow="visible"/>
					</clipPath>
					<clipPath id="SVGID_106_" clip-path="url(#SVGID_105_)">
						<use xlink:href="#SVGID_37_"  overflow="visible"/>
					</clipPath>
					<clipPath id="SVGID_107_" clip-path="url(#SVGID_106_)">
						<use xlink:href="#SVGID_38_"  overflow="visible"/>
					</clipPath>
					<clipPath id="SVGID_108_" clip-path="url(#SVGID_107_)">
						<use xlink:href="#SVGID_39_"  overflow="visible"/>
					</clipPath>
					<clipPath id="SVGID_109_" clip-path="url(#SVGID_108_)">
						<use xlink:href="#SVGID_40_"  overflow="visible"/>
					</clipPath>
					<clipPath id="SVGID_110_" clip-path="url(#SVGID_109_)">
						<use xlink:href="#SVGID_41_"  overflow="visible"/>
					</clipPath>
					<clipPath id="SVGID_111_" clip-path="url(#SVGID_110_)">
						<use xlink:href="#SVGID_42_"  overflow="visible"/>
					</clipPath>
					<clipPath id="SVGID_112_" clip-path="url(#SVGID_111_)">
						<use xlink:href="#SVGID_43_"  overflow="visible"/>
					</clipPath>
					<clipPath id="SVGID_113_" clip-path="url(#SVGID_112_)">
						<use xlink:href="#SVGID_44_"  overflow="visible"/>
					</clipPath>
					<clipPath id="SVGID_114_" clip-path="url(#SVGID_113_)">
						<use xlink:href="#SVGID_45_"  overflow="visible"/>
					</clipPath>
					<clipPath id="SVGID_115_" clip-path="url(#SVGID_114_)">
						<use xlink:href="#SVGID_46_"  overflow="visible"/>
					</clipPath>
					<clipPath id="SVGID_116_" clip-path="url(#SVGID_115_)">
						<use xlink:href="#SVGID_47_"  overflow="visible"/>
					</clipPath>
					<clipPath id="SVGID_117_" clip-path="url(#SVGID_116_)">
						<use xlink:href="#SVGID_48_"  overflow="visible"/>
					</clipPath>
					<clipPath id="SVGID_118_" clip-path="url(#SVGID_117_)">
						<use xlink:href="#SVGID_49_"  overflow="visible"/>
					</clipPath>
					<clipPath id="SVGID_119_" clip-path="url(#SVGID_118_)">
						<use xlink:href="#SVGID_50_"  overflow="visible"/>
					</clipPath>
					<clipPath id="SVGID_120_" clip-path="url(#SVGID_119_)">
						<use xlink:href="#SVGID_51_"  overflow="visible"/>
					</clipPath>
					<clipPath id="SVGID_121_" clip-path="url(#SVGID_120_)">
						<use xlink:href="#SVGID_52_"  overflow="visible"/>
					</clipPath>
					<clipPath id="SVGID_122_" clip-path="url(#SVGID_121_)">
						<use xlink:href="#SVGID_53_"  overflow="visible"/>
					</clipPath>
					<clipPath id="SVGID_123_" clip-path="url(#SVGID_122_)">
						<use xlink:href="#SVGID_54_"  overflow="visible"/>
					</clipPath>
					<clipPath id="SVGID_124_" clip-path="url(#SVGID_123_)">
						<use xlink:href="#SVGID_55_"  overflow="visible"/>
					</clipPath>
					<clipPath id="SVGID_125_" clip-path="url(#SVGID_124_)">
						<use xlink:href="#SVGID_56_"  overflow="visible"/>
					</clipPath>
					<clipPath id="SVGID_126_" clip-path="url(#SVGID_125_)">
						<use xlink:href="#SVGID_57_"  overflow="visible"/>
					</clipPath>
					<clipPath id="SVGID_127_" clip-path="url(#SVGID_126_)">
						<use xlink:href="#SVGID_58_"  overflow="visible"/>
					</clipPath>
					<clipPath id="SVGID_128_" clip-path="url(#SVGID_127_)">
						<use xlink:href="#SVGID_59_"  overflow="visible"/>
					</clipPath>
					<clipPath id="SVGID_129_" clip-path="url(#SVGID_128_)">
						<use xlink:href="#SVGID_60_"  overflow="visible"/>
					</clipPath>
					<clipPath id="SVGID_130_" clip-path="url(#SVGID_129_)">
						<use xlink:href="#SVGID_61_"  overflow="visible"/>
					</clipPath>
					<clipPath id="SVGID_131_" clip-path="url(#SVGID_130_)">
						<use xlink:href="#SVGID_62_"  overflow="visible"/>
					</clipPath>
					<clipPath id="SVGID_132_" clip-path="url(#SVGID_131_)">
						<use xlink:href="#SVGID_63_"  overflow="visible"/>
					</clipPath>
					<clipPath id="SVGID_133_" clip-path="url(#SVGID_132_)">
						<use xlink:href="#SVGID_64_"  overflow="visible"/>
					</clipPath>
					<clipPath id="SVGID_134_" clip-path="url(#SVGID_133_)">
						<use xlink:href="#SVGID_65_"  overflow="visible"/>
					</clipPath>
					<clipPath id="SVGID_135_" clip-path="url(#SVGID_134_)">
						<use xlink:href="#SVGID_66_"  overflow="visible"/>
					</clipPath>
					<clipPath id="SVGID_136_" clip-path="url(#SVGID_135_)">
						<use xlink:href="#SVGID_67_"  overflow="visible"/>
					</clipPath>
					<clipPath id="SVGID_137_" clip-path="url(#SVGID_136_)">
						<use xlink:href="#SVGID_68_"  overflow="visible"/>
					</clipPath>
					<clipPath id="SVGID_138_" clip-path="url(#SVGID_137_)">
						<use xlink:href="#SVGID_69_"  overflow="visible"/>
					</clipPath>
					<clipPath id="SVGID_139_" clip-path="url(#SVGID_138_)">
						<use xlink:href="#SVGID_70_"  overflow="visible"/>
					</clipPath>
					<clipPath id="SVGID_140_" clip-path="url(#SVGID_139_)">
						<use xlink:href="#SVGID_71_"  overflow="visible"/>
					</clipPath>
					
						<linearGradient id="SVGID_141_" gradientUnits="userSpaceOnUse" x1="1198.2769" y1="541.8691" x2="1198.2769" y2="541.8691" gradientTransform="matrix(1 0 0 -1 116 1070.8477)">
						<stop  offset="0.0851" style="stop-color:#F1F5E3"/>
						<stop  offset="0.4661" style="stop-color:#EBDEC3"/>
						<stop  offset="0.6761" style="stop-color:#E8D5BE"/>
						<stop  offset="0.9891" style="stop-color:#E0D1CC"/>
					</linearGradient>
					<path clip-path="url(#SVGID_140_)" fill="url(#SVGID_141_)" d="M1314.277,528.979"/>
					
						<linearGradient id="SVGID_142_" gradientUnits="userSpaceOnUse" x1="192.106" y1="450.1289" x2="920.4077" y2="450.1289" gradientTransform="matrix(1 0 0 -1 116 1070.8477)">
						<stop  offset="0.6928" style="stop-color:#AFC0B6"/>
						<stop  offset="1" style="stop-color:#C8CC8A"/>
					</linearGradient>
					<path opacity="0.7" clip-path="url(#SVGID_140_)" fill="url(#SVGID_142_)" enable-background="new    " d="M451.62,532.315
						c0,0-141.443,13.348-143.445,14.013c-2,0.671,40.031,28.688,68.054,38.032c28.021,9.338,252.193,124.762,252.193,124.762
						l111.419-2.001l194.15-130.098c0,0,129.828-25.805,97.137-25.805s-187.209-18.902-191.215-5.555
						c-4.004,13.34-49.369,12.008-54.707,12.675c-5.334,0.665-37.412,20.173-66.006,21.471c-4.67-0.667-45.42,51.922-48.09,54.59
						c-2.665,2.667-29.891,5.198-29.891,5.198s-44.9-59.788-67.584-59.788c-22.686,0-36.392-18.193-36.392-18.193
						s-1.561-16.621-32.252-15.952c-30.688,0.665-41.365-10.007-46.034-11.344C454.286,532.984,451.62,532.315,451.62,532.315z"/>
					
						<linearGradient id="SVGID_143_" gradientUnits="userSpaceOnUse" x1="-31.9951" y1="490.0439" x2="280.4204" y2="490.0439" gradientTransform="matrix(1 0 0 -1 116 1070.8477)">
						<stop  offset="0.6928" style="stop-color:#AFC0B6"/>
						<stop  offset="1" style="stop-color:#C8CC8A"/>
					</linearGradient>
					<path clip-path="url(#SVGID_140_)" fill="url(#SVGID_143_)" d="M370.226,575.685c0,0-48.038-12.676-54.041-22.016
						c-6.007-9.345-28.689-16.015-40.699-16.681c-12.01-0.67-28.689-27.355-48.705-11.342
						c-20.013,16.013-43.366,22.686-43.366,22.686l-99.41,27.354l246.854,65.385c0,0,62.718-45.373,65.386-48.04
						C398.915,590.364,370.226,575.685,370.226,575.685z"/>
					
						<linearGradient id="SVGID_144_" gradientUnits="userSpaceOnUse" x1="528.7271" y1="422.0781" x2="1253.4937" y2="422.0781" gradientTransform="matrix(1 0 0 -1 116 1070.8477)">
						<stop  offset="0" style="stop-color:#4E706A"/>
						<stop  offset="0.6041" style="stop-color:#AFC0B6"/>
						<stop  offset="1" style="stop-color:#C8CC8A"/>
					</linearGradient>
					<path opacity="0.8" clip-path="url(#SVGID_140_)" fill="url(#SVGID_144_)" enable-background="new    " d="M644.766,693.442
						l33.025-18.015l44.035-35.026c0,0,127.096-67.052,137.104-67.052s47.035-31.021,77.061-24.018s106.084-33.028,139.105-32.025
						c33.027,1,97.072-3.002,112.084,0c15.016,3.003,154.119-17.015,177.141,16.012c23.018,33.027-35.031,143.107-90.074,144.108
						c-55.037,1-527.24,125.129-541.324,103.599C718.82,759.491,642.765,748.484,644.766,693.442z"/>
					
						<linearGradient id="SVGID_145_" gradientUnits="userSpaceOnUse" x1="773.9526" y1="459.4058" x2="942.2534" y2="459.4058" gradientTransform="matrix(1 0 0 -1 116 1070.8477)">
						<stop  offset="0" style="stop-color:#4E706A"/>
						<stop  offset="0.6041" style="stop-color:#AFC0B6"/>
						<stop  offset="1" style="stop-color:#C8CC8A"/>
					</linearGradient>
					<path clip-path="url(#SVGID_140_)" fill="url(#SVGID_145_)" d="M889.953,641.736c0,0,18.684-10.673,31.359-15.345
						c12.68-4.67-6.008-14.679,18.014-14.014c24.018,0.669,14.676,4.674,27.354-6.668c12.672-11.341,13.342-18.683,26.688-18.683
						c13.344,0,43.367-8.006,56.045-5.334c12.674,2.667,8,8.006,8,8.006l-124.09,50.033L889.953,641.736z"/>
					
						<linearGradient id="SVGID_146_" gradientUnits="userSpaceOnUse" x1="219.5288" y1="403.4268" x2="567.1299" y2="403.4268" gradientTransform="matrix(1 0 0 -1 116 1070.8477)">
						<stop  offset="0" style="stop-color:#4E706A"/>
						<stop  offset="1" style="stop-color:#C8CC8A"/>
					</linearGradient>
					<path opacity="0.8" clip-path="url(#SVGID_140_)" fill="url(#SVGID_146_)" enable-background="new    " d="M335.529,589.031
						l41.366-14.017c0,0-5.34-6.003,0-6.003c5.334,0,86.734,5.339,86.734,5.339s32.023,12.009,34.024,12.009
						c2.004,0,74.723,56.044,74.723,56.044s88.738,53.375,88.738,63.381c0,10.01,10.008,29.359,10.008,29.359l12.008,10.003
						l-38.028,20.684l-139.439-34.694L335.529,589.031z"/>
					
						<linearGradient id="SVGID_147_" gradientUnits="userSpaceOnUse" x1="-31.9951" y1="383.4097" x2="592.4863" y2="383.4097" gradientTransform="matrix(1 0 0 -1 116 1070.8477)">
						<stop  offset="0.5883" style="stop-color:#416469"/>
						<stop  offset="1" style="stop-color:#C2B98B"/>
					</linearGradient>
					<path clip-path="url(#SVGID_140_)" fill="url(#SVGID_147_)" d="M200.759,572.347c48.039-1.336,64.051-6.002,64.051-6.002
						l21.351,5.335l16.01-0.669c0,0,46.038,17.35,52.709,30.025c6.67,12.68,22.684,11.342,22.684,11.342l46.702,25.354
						l67.385,52.705l54.041,7.344c0,0,30.691,20.012,34.027,22.015c3.337,2.001,63.38,35.359,63.38,35.359l32.027,1.335
						l7.336,17.349l26.024,16.683l-79.396,18.01l-422.321-80.729L84.005,650.408L200.759,572.347z"/>
					
						<linearGradient id="SVGID_148_" gradientUnits="userSpaceOnUse" x1="527.0977" y1="390.3311" x2="1309.9233" y2="390.3311" gradientTransform="matrix(1 0 0 -1 116 1070.8477)">
						<stop  offset="0" style="stop-color:#C2B98B"/>
						<stop  offset="0.4117" style="stop-color:#416469"/>
					</linearGradient>
					<path opacity="0.9" clip-path="url(#SVGID_140_)" fill="url(#SVGID_148_)" enable-background="new    " d="M643.098,755.154
						l72.722-19.347l68.723-2l15.344-29.356l64.715-57.379l34.691-8.003l42.703-21.348l30.684-5.338c0,0-1.998-9.346,19.35-14.012
						c21.355-4.674,68.057-14.012,72.059-14.012c4,0,15.344-4.003,28.689-6.005c13.344-2,116.758-12.01,116.758-22.015
						c0-10.008,59.379-33.36,59.379-33.36l61.379,4.67l18.012-18.679l77.619-11.18l-17.572,191.981L733.837,863.241L643.098,755.154
						"/>
					<path clip-path="url(#SVGID_140_)" fill="#FFFFFF" d="M677.795,793.855c0,0-28.689-17.353-52.039-18.015
						c-23.352-0.667-23.352-7.343-34.028-21.352c-10.674-14.014-36.029-64.052-52.708-61.377c-16.679,2.667-30.022,4-34.025-2.004
						c-4.003-6.01-10.673-26.021-28.688-20.018c-6.173,2.334-8.507,9.338-8.34,10.176c-3.506-0.67-11.846,0.833-14.012,4.834
						c0.667-2.334-8.842-10.508-13.843-7.835c6-8.006,9.504-29.022-21.853-25.52c2.502-6.171-5.836-18.686-19.685-15.178
						c-3.499-4.172-12.343-7.009-17.345-1.504c-2-1.5-17.513-4.337-22.517,5.672c-5.337-4.006-23.517-12.18-28.523-9.678
						c-2.167-8.504-6.002-15.344-16.846-14.341c0-8.173-14.341-29.357-42.367-19.016c-1.498-3.005-21.514-20.347-34.524-14.845
						c-13.009,5.503-12.508-4.001-14.011-15.011c-1.5-11.009-23.518-28.522-38.029-26.021c-1.001-11.006,1.003-52.041-31.024-53.039
						c-32.022-1-114.085,13.009-113.583,19.012c0.495,6.004,3,130.601,3,130.601l226.674,115.59l209.16,57.046L677.795,793.855z"/>
					<path clip-path="url(#SVGID_140_)" fill="#FFFFFF" d="M669.287,786.015c0,0,80.056-43.036,113.585-40.532
						c33.521,2.502,33.875-11.884,49.037-24.521c10.012-8.339,9.512-20.349,38.699-24.853c0.334-2.507,2.33-21.349,17.346-18.684
						c1.168-4.167,15.678-7.504,20.682,3.838c5.17-7.502,16.01-13.511,25.521-5.003c0.668-9.342,10.676-18.351,22.182-11.344
						c-0.83-10.503,7.346-25.518,24.521-20.013c3.834-4.503,16.682-6.176,18.348,3.166c5.338-4.168,15.178-3.833,18.012,6.008
						c2.672-4.339,17.01-22.352,29.359-12.007c0.834-6.173,0.5-45.207,46.031-42.87c-1.5-5.838,8.844-28.189,26.189-22.017
						c-2.002-9.673,7.84-41.2,42.031-35.358c7.338-7.341,28.1-26.268,54.119-16.511c2.256-4.505,6.01-11.263,16.512-8.761
						c0.504-4.755,5.258-9.757,11.512-4.001c1-4.504,10.51-4.504,9.762,0.751c8.752-12.008,16.764-19.268,35.773-12.511
						c4.754-22.016,36.277-31.026,54.791-5.005c2.006-14.01,9.008-43.532,46.537-31.522c-5.002-12.01,25.127-31.523,34.578-15.512
						c0,22.519,0.449,155.618,0.449,155.618l-156.619,94.076c0,0-573.472,109.033-603.466,93.067
						C633.76,775.005,669.287,786.015,669.287,786.015z"/>
					<path clip-path="url(#SVGID_140_)" fill="#576F76" d="M815.902,786.514c-2.674,0-64.723-10.011-83.4-6.673
						c-18.678,3.34-56.707,18.017-63.38,16.679c-6.674-1.332-8.676-8.003-38.029-7.34c-29.356,0.67-40.697-8.001-69.387-8.001
						c-28.688,0-37.362,6.668-68.718,7.338c-31.358,0.663-63.384-18.682-76.729-17.347c-13.341,1.335-28.235,10.996-28.235,10.996
						s77.608,29.7,122.308,30.368c44.702,0.667,102.08,11.341,146.112,18.014c44.03,6.678,50.043-2.002,99.407-4.675
						C805.222,823.21,815.902,786.514,815.902,786.514z"/>
					<path clip-path="url(#SVGID_140_)" fill="#DBD8C1" d="M693.136,825.21c0,0-34.026-13.344-42.027-12.676
						c-8.011,0.663-12.676,5.338-17.35,0.663c-4.67-4.663-16.68-6-22.013-5.333c-5.339,0.67-24.69-7.336-32.029-6.673
						c-7.336,0.669-21.348,2.672-21.348,2.672s-38.031-11.347-38.031-6.675s-34.023,7.34-34.023,7.34s42.695,34.692,73.387,33.691
						c30.69-0.999,82.062,2.336,82.062,2.336s55.373-2.002,54.044-14.684"/>
					<path clip-path="url(#SVGID_140_)" fill="#5A5C73" d="M532.016,844.226l44.034-2.002l-6.005-5.007l-7.671-5.669
						c0,0-1.002,9.34-0.669,7.674c0.334-1.669-2.002-7.007-2.002-7.007v6.005l-1.333-3.671l-2.001,1.001l-1.335-5.671v5.001
						l-2.336-4.336c0,5.338-1.667,1.337-1.667-0.332c0-1.666,0-1.666,0-1.666l-2.671-6.003v12.177c0,0-1.835-15.015-1.669-14.518
						c0.168,0.504,0,11.848,0,11.848s-2-17.351-2-12.51c0,4.838-0.832,15.181-0.668,12.676c0.17-2.502-0.666-11.509-0.666-11.509
						s-1.67,9.007-1.502,9.843c0.168,0.831-3.003-12.676-2.835-11.01c0.167,1.667,0,8.174,0,8.174s-2.667-13.846-2.835-11.012
						c-0.168,2.838-0.336,8.174-0.336,10.844c0,2.667-5.17-11.176-5.17-11.176s0,9.677,0,10.345c0,0.665-3.168-12.011-3-9.843
						c0.167,2.168-0.833,7.672-0.833,7.672s-1.503-7.172-1.338-6.67c0.168,0.5,0.499,9.672-0.166,6.337
						c-0.666-3.333-1.834-10.674-1.834-10.674l-0.667,10.842l-2.833-10.681c0,0-1.338,9.012-1.338,9.509
						c0,0.504-1.666-8.834-1.666-8.834s-0.167,9.67,0,10.505c0.17,0.836-3.167-11.01-3.167-11.01l-1.503,8.011l-0.499-11.846
						l-2.669,13.678l-2.836-12.177c0,0-0.834,7.506-0.834,8.006c0,0.501-2.169-11.005-2.169-11.005s-2.333,6.003-2.333,7.336
						c0,1.335-2.67-10.677-2.67-10.677l-1.503,9.675l-3.667-10.845c0,0-1.501,7.675-1.501,8.345c0,0.663-0.167-11.342-0.332-11.841
						c-0.168-0.504-1.834,6.834-1.834,8.007c0,1.161-2.172-10.677-2.172-10.677l-0.164,18.177l-3.171-16.673
						c0,0-1.667,23.015-1.502,18.181c0.167-4.841-1.167-22.357-1.167-22.357s-1.669,15.851-1.502,14.684
						c0.168-1.172-0.832-22.186-0.832-20.688c0,1.505-0.837,14.182-0.669,16.18c0.167,2.002-2.001-19.184-2.001-18.012
						c0,1.169-1.334,17.68-1.167,19.013c0.167,1.339-0.167-17.512,0-15.841c0.167,1.667-1.502,14.508-1.334,15.01
						c0.168,0.498-0.669-12.011-0.669-12.011s0,8.342,0,9.173c0,0.835-1.832-7.835-1.832-7.835l-0.168,14.508
						c0,0-1.335-18.009-1.335-16.511s-1.167,7.504-1.167,9.838c0,2.336-4.004,8.177-4.004,8.177l-0.166-19.187
						c0,0-0.997,12.682-0.833,14.679c0.167,2-1.336-15.51-1.336-13.843s-0.999,12.842-0.833,13.677
						c0.169,0.833-3.001-13.512-3.001-13.512v16.847c0,0-2.503-17.849-2.336-18.68c0.168-0.835-1.5,10.34-1.5,10.34l-1.837-10.34
						c0,0-1.833,15.016-1.833,15.682c0,0.664-1.5-13.179-1.5-13.179s-2.335,7.007-2.335,9.007c0,2.002,0-18.345,0-18.345
						s-3.671,13.843-3.505,15.507c0.168,1.669-2.665-5.338-3.001-7.674c-0.335-2.33-5.004,12.682-5.004,12.682v-21.353
						c0,0-4.334,21.688-4.334,20.18c0-1.497-0.668-21.681-0.503-20.01c0.166,1.667-1.834,36.357-1.834,17.844
						c0-18.512,0-27.856,0-26.351c0,1.496-3.669,14.34-3.669,15.01s-1.171-16.343-1.171-15.512c0,0.835-0.33,18.014-0.33,18.014
						l-2.837-16.18c0,0-1.333,8.174-1.168,8.842c0.167,0.665-0.334-13.846-0.334-13.01c0,0.833-1.501,13.507-1.501,14.511
						c0,1.001,0.168-8.171-0.334-8.51c-0.499-0.332-2.5,14.679-2.5,15.183c0,0.497-1.834-20.183-1.669-19.184
						c0.169,1.001-2.168,10.844-2.168,10.844s-1.166-15.349-1.166-12.681c0,2.673-1.67,9.007-1.67,9.007l-8.672-14.34
						c0,0-2.501,16.847-2.333,15.675c0.167-1.165,0-19.681,0-19.681s-4.335,8.006-4.335,9.677c0,1.665-1.004-12.348-1.168-9.845
						c-0.167,2.507-1.336,13.01-1.336,13.01s-2.501-13.678-2.334-10.673c0.164,3.003,0,9.843,0,9.843s-8.007-20.854-8.007-19.021
						c0,1.837,0,18.685,0,18.685s-3.168-17.016-3.168-15.681c0,1.336-1.336,18.685-1.667,16.848
						c-0.335-1.832-3.503-19.344-3.503-19.344s-1.834,16.009-1.834,14.175s-0.333-15.684-0.333-14.175
						c0,1.496-1.334,9.838-1.334,8.003c0-1.832-0.834-9.673-0.834-9.673s-1.836,10.509-1.836,11.006
						c0,0.502-1.334-15.18-1.334-14.514c0,0.67-3.168,14.514-3.002,15.016c0.167,0.499-2.503-8.677-2.503-8.677
						s-2.165,24.521-1.999,6.177c0.168-18.349-2.003-23.188-2.003-27.521c0-4.337-1.5,32.856-1.5,32.856l-3.005-19.684
						c0,0-1.498,20.184-1.498,20.683c0,0.502-1.834-21.351-1.834-21.351l-2.001,10.843c0,0-1.503-17.68-1.335-18.513
						c0.168-0.835-6.337,15.011-6.337,15.011l-0.167-14.01c0,0-1.835,17.512-1.835,13.345c0-4.172-2.836-30.191-2.836-30.191
						l-1.334,26.851l-2.67-18.015c0,0-0.999-7.835-1.832-6.501c-0.834,1.334-2.335,15.177-2.335,15.177s-3.339-16.012-3.668-15.344
						c-0.336,0.665-3.174,11.84-3.174,11.84s-2-16.679-1.833-15.014c0.169,1.674-1.333,15.351-1.333,15.351
						s-0.166-22.687-0.166-20.685c0,2.003-3.335,17.349-3.173,18.683c0.171,1.334-1.663-19.515-1.663-16.177
						c0,3.332-1,19.68-1,19.68l-2.839-35.528l-5,28.188l-2.839-19.681l-2.167,18.347l-1.168-21.685c0,0-3.834,20.014-3.834,20.516
						c0,0.5-0.501-26.521-0.501-25.521c0,1.005-3.67,22.186-3.67,22.688c0,0.499-6.004-41.367-6.004-41.367
						s-4.005,37.526-3.837,38.194c0.168,0.668-1.834-32.856-1.666-31.689c0.162,1.163-1.172,27.687-1,28.021
						c0.165,0.33-2.502-35.029-2.502-34.025s-0.671,23.684-0.671,23.684l-1.833-22.183c0,0-0.5,25.852-0.5,20.185
						c0-5.675-6.175-21.517-6.004-15.681c0.164,5.838-0.501-3.004-0.501-3.004l-2.003-7.004c0,0-2.667,18.852-2.667,20.517
						c0,1.67,0-19.348-0.833-12.179c-0.834,7.171-1.505,30.025-2.172,18.017c-0.666-12.006-2.668-25.353-2.503-23.185
						c0.169,2.173-2.833,23.687-2.833,19.685c0-4.003-2.169-24.688-2.169-23.355c0,1.337-1.167,12.513-1.167,14.013
						c0,1.504-7.506-18.346-7.506-18.346s-0.502,20.182-0.502,22.518c0,2.331-1.331-30.522-1.331-30.522s-3.838,15.677-3.67,17.186
						c0.167,1.494-3.502-19.188-3.336-18.689c0.169,0.501-1.5,22.353-1.5,23.856c0,1.5-2.335-23.521-2.335-23.521
						s-4.169,17.513-4.007,18.181c0.169,0.662-3.5-24.688-3.834-20.686c-0.334,4.005-4.501,30.527-4.501,30.527l-2.002-24.354
						c0,0-3.836,21.512-3.67,20.511c0.168-0.996-1.664-8.002-1.664-12.003c0-4.005-4.673-22.849-4.673-22.849l-3.003,34.523
						c0,0-3.001-33.86-3.001-31.856c0,2-3.17,21.683-3.17,21.683l-3.334-23.854l-2.002,20.353c0,0-14.343-17.515-14.177-20.514
						c0.169-3.004-1.67-15.183-1.67-13.346c0,1.834-4,27.521-4.169,24.184c-0.166-3.336-1.998-24.687-1.998-23.015
						c0,1.664-0.838,40.359-2.672,20.679c-1.836-19.681-4.334-35.192-4.169-32.188c0.168,3,0,33.688-0.165,28.854
						c-0.167-4.837-3.838-26.354-3.838-23.681c0,2.668-2.335,22.68-2.335,20.847c0-1.837-5.172-13.677-5.172-13.677l-3.168-12.845
						l-6.169,30.856L130.73,633.4l-5.673,45.369l-1.334-62.045l-11.341,61.711l-5.34-73.39l-8.336,64.383l0.665-56.046
						l-8.008,45.707l-4.666-48.707l-11.346,58.71V615.05l-12.67,37.03l-3.673-44.367l-5.338,54.708L3.276,607.376l2.628,160.12
						C5.905,767.497,527.014,849.896,532.016,844.226z"/>
					<path clip-path="url(#SVGID_140_)" fill="#231B3C" d="M516.748,835.632c-0.214,3.104,0.058,6.297-0.18,9.364
						c-0.744-2.669-0.935-6.292-2.291-8.47c-0.245,2.159-0.786,5.024-1.577,6.616c-1.333-2.573-1.731-5.548-3.192-8.15
						c-0.385,1.807-0.072,4.273-0.812,6.09c-1.392-2.861-1.693-6.969-3.535-9.077c-0.249,1.324-1.535,3.121-1.979,4.104
						c-0.933-1.965-1.427-4.12-2.452-6.042c0.241,1.829-0.548,2.862-1.063,4.062c-1.156-1.841-1.417-4.062-1.985-6.107
						c-1.246,0.69-1.957,1.574-2.129,3.484c-0.574-0.01-1.243,0.116-1.812,0.082c-0.563,2.313-0.56,4.705-1.057,6.972
						c-1.188-2.44-2.141-5.6-3.434-8.08c0.078,1.479-0.281,3.145-0.204,4.611c-0.781-1.736-1.198-4.008-1.5-6.05
						c-0.556,0.116-1.041,0.712-1.403,1.123c-0.186-0.385-0.651-1.599-1.011-1.912c-0.107,0.672-0.6,1.795-0.588,2.769
						c-0.42-1.85-0.832-3.754-1.537-5.527c-0.215,1.144-1.149,2.833-1.369,4.062c-0.574-1.731-0.894-3.709-1.387-5.434
						c0.011,1.715-0.455,3.219-0.956,4.428c-1.246-6.491-2.873-14.224-5.596-20.257c-0.274,7.282,0.096,14.621-0.116,21.898
						c-4.5-3.562-4.233-18.938-5.345-24.412c-0.94-4.654-1.636-11.099-4.534-14.917c-0.483,11.898,0.278,23.789,0.441,35.676
						c-0.013-7.399-1.293-14.912-1.646-22.334c-0.213-4.5,0.055-10.713-2.291-14.81c-1.044,12.044,1.931,26.552-1.065,37.948
						c-3.151-9.818-0.237-21.035-2.552-31.052c0.104,10.755,0.761,21.814-0.047,32.542c-3.822-9.824,0.203-22.297-4.576-31.862
						c-1.595,9.861,2.022,21.311-0.746,30.786c-0.706-7.406,2.928-21.837-0.586-27.833c-1.993,3.751-2.253,10.361-2,14.603
						c0.218-8.33-2.594-19.314-5.825-26.897c-0.803,8.276-0.588,17.186-0.12,25.521c-1.364-11.176-3.656-23.924-7.496-34.366
						c-1.056,10.428-0.124,21.354-0.086,31.85c0.236-8.063-0.123-18.92-3.946-26.211c-0.8,10.597-0.356,21.657-0.005,32.296
						c-2.181-12.384-2.867-25.411-6.708-37.419c-1.664,9.614-2.25,24.239,0.167,33.82c0.34-9.908-1.824-19.578-3.671-29.246
						c-2.294,9.136-0.487,21.219-0.328,30.912c-1.649-13.922-7.191-29.985-13.482-42.563c-1.23,12.264-0.022,25.996,3.001,37.969
						c0.159-10.088-3.223-24.293-7.729-33.447c-2.146,11.624-0.8,25.877-0.257,37.888c-1.689-11.885-4.017-23.72-6.21-35.515
						c-1.616,8.265-0.531,17.062-2.495,25.199c-1.235-6.578-0.468-16.977-5.424-22.148c-1.614,6.549-0.792,15.024-0.381,21.9
						c-3.43-9.21-2.672-25.665-10.007-32.709c-0.526,8.746,1.505,17.233,1.446,25.873c-0.071-12.692-2.824-25.289-3.002-37.894
						c-0.84,17.229-2.983,34.821-1.927,52.081c-2.556-12.391-6.524-24.624-9.144-37.08c-1.218-5.791-1.649-14.301-4.36-19.539
						c-0.603,15.681-0.24,31.442-0.652,47.092c-1.481-7.712-2.833-15.381-3.962-23.146c-0.813,12.394,2.251,29.546-2.956,41.023
						c-4.582-3.549-4.498-14.103-5.25-19.2c-1.787-12.078-2.874-25.289-7.336-36.747c-2.037,5.991-0.618,16.294-0.522,22.801
						c0.118,7.828,1.941,15.393,2.136,23.161c-1.815-14.679-3.139-33.44-9.502-46.788c-0.752,7.978-0.071,16.303-0.077,24.318
						c0,2.385,1.146,8.822-0.857,10.421c-4.152-9.966-2.538-23.737-2.642-34.462c-0.024-2.532,1.241-8.662-2.01-9.638
						c-3.31,9.945-1.999,21.463-1.987,31.874c0.369-11.458-1.567-24.872-3.999-36.035c-0.89-4.099-2.062-10.42-5.05-13.597
						c-2.17,4.816-0.467,13.755-0.467,19.271c0,5.106-0.161,10.244,0.069,15.346c-3.858-9.919-5.456-20.866-8.066-30.776
						c-3.615,11.601-2.018,25.569-2.011,37.734c0-5.438-0.114-10.891,0.069-16.324c-1.196,10.118-3.615,26.421-9.985,34.745
						c-0.571-10.534-0.091-21.319-0.091-31.923c-0.019,10.016,0.516,19.998,0.56,30.006c-1.601-9.133-1.776-18.85-4.699-27.688
						c-1.884,9.48,0.482,21.298-3.205,30.362c-3.749-10.757-2.592-24.483-3.287-35.909c-1.635,8.821-0.378,19.668-0.378,29.068
						c0-10.088,0.371-20.234-0.076-30.312c-0.175-3.88,0.292-9.151-2.87-12.054c0.02,13.294-6.91,25.722-5.972,39.172
						c-1.221-10.146-5.429-20.098-7.659-30.055c-1.923-8.587-3.012-17.568-6.412-25.744c-0.488,11.424-0.379,23.118,0.027,34.548
						c-0.554-11.717-1.912-27.99-6.721-38.858c-2.291,10.6-0.933,23.02-1.217,33.796c-0.161,6.111,0.98,15.494-1.089,21.413
						c-5.238-10.466,2.846-29.771-5.406-38.896c-5.965,8.974-2.528,26.82-3.25,37.772c-0.407-1.074-0.48-3.011-0.39-4.57
						l-5.004-35.021l-3.001,32.526l-7.504-39.034l-0.501,44.535l-7.005-48.539c0,0,0.501,55.042,0,42.037
						c-0.503-13.014-4.005-47.036-4.005-47.036l-0.997,26.516l-3.004-33.021l-1.5,30.521l-12.011-37.025c0,0-1,38.531-0.499,40.529
						c0.499,2.003-3.502-52.54-3.502-48.538c0,4.005-0.502,58.546-0.502,58.546s-2.502-53.042-1.998-50.537
						c0.498,2.502-2.503,39.03-2.002,41.53c0.498,2.502-3.505-50.038-4.006-39.53c-0.496,10.505-0.496,40.031-0.496,38.528
						c0-1.499-3.004-42.032-3.004-39.028c0,3.002,0,53.539,0,53.539l-4.503-46.534c0,0,0,25.024,0,33.526
						c0,8.505-11.007-47.038-11.007-47.038s-0.502,62.548,0,68.551c0.5,6.007-5.005-58.542-5.005-58.542s-0.5,69.055,0,56.046
						c0.498-13.015,0-64.551,0-64.551s-7.006,37.527-7.006,42.531c0,5.002-9.507-50.04-9.507-50.04s0,82.566,0,71.058
						c0-11.514-5.004-60.048-5.004-60.048v49.037c0,0-1.502-67.552-1.502-53.541c0,0-8.005,59.544-7.504,61.546
						c0.498,2.003-10.509-51.537-10.009-47.036c0.5,4.502-0.5,57.046,0,51.043c0.5-6.01-7.008-63.051-7.008-55.545
						c0,7.507,0.503,59.041,0,49.535c-0.499-9.504-7.504-44.53-7.504-44.53s0.502,69.052,0,50.039
						c-0.496-19.018-3.5-63.052-3.001-51.543c0.5,11.511,0.5,69.558,0,41.035c-0.498-28.527-5.505-74.056-5.004-54.544
						c0.502,19.516-0.5,66.051,0,54.04c0.502-12.006-1.999-48.035-1.5-42.531c0.501,5.501,0.501,84.065,0,45.038
						c-0.498-39.03-2.5-61.553-2.001-52.042c0.5,9.507-1.501-28.525-1.001,4.503c0.503,33.026-3.001-16.017-3.001-11.51
						c0,4.502,0,39.535,0,42.534c0,3.004-6.505-46.537-6.505-46.537l-0.999,59.045l-2.003-54.54c0,0,0,55.04-1.502,44.034
						c-1.503-11.011-9.505-56.045-9.505-56.045l-1.003,53.541L58.821,677.43l-4.003,56.543v-16.008v-48.538
						c0,0-9.504,45.033-9.007,49.539c0.502,4.502-5.506-53.041-5.506-53.041l-7.002,51.538l-6.504,71.057l16.512,26.021
						l192.145,77.558l220.668,3.003l-15.511-27.021l-28.523-15.514l122.096-6.004"/>
					<path clip-path="url(#SVGID_140_)" fill="#5A5C73" d="M751.974,792.207l-57.186-1.839l7.803-4.593l9.961-5.209
						c0,0,1.301,8.582,0.863,7.046c-0.432-1.531,2.598-6.434,2.598-6.434v5.514l1.736-3.373l2.604,0.922l1.73-5.207v4.596
						l3.031-3.981c0,4.9,2.17,1.221,2.17-0.309c0-1.531,0-1.531,0-1.531l3.463-5.518v11.186c0,0,2.385-13.79,2.174-13.328
						c-0.221,0.458,0,10.876,0,10.876s2.592-15.933,2.592-11.488c0,4.44,1.084,13.938,0.871,11.643
						c-0.221-2.299,0.861-10.572,0.861-10.572s2.168,8.273,1.951,9.042c-0.217,0.766,3.896-11.647,3.686-10.111
						c-0.219,1.531,0,7.507,0,7.507s3.463-12.718,3.68-10.113c0.223,2.606,0.432,7.511,0.432,9.957
						c0,2.453,6.715-10.263,6.715-10.263s0,8.888,0,9.497c0,0.616,4.119-11.028,3.908-9.037c-0.221,1.993,1.082,7.049,1.082,7.049
						s1.941-6.589,1.729-6.132c-0.215,0.465-0.65,8.886,0.219,5.821c0.865-3.062,2.381-9.803,2.381-9.803l0.863,9.958l3.688-9.802
						c0,0,1.736,8.272,1.736,8.729c0,0.462,2.164-8.12,2.164-8.12s0.211,8.888,0,9.656c-0.217,0.764,4.115-10.115,4.115-10.115
						l1.943,7.356l0.656-10.879l3.463,12.564l3.686-11.186c0,0,1.08,6.896,1.08,7.354c0,0.458,2.818-10.113,2.818-10.113
						s3.025,5.521,3.025,6.745c0,1.221,3.475-9.812,3.475-9.812l1.947,8.888l4.77-9.957c0,0,1.947,7.046,1.947,7.66
						c0,0.612,0.215-10.419,0.43-10.876c0.225-0.458,2.387,6.281,2.387,7.353c0,1.069,2.812-9.803,2.812-9.803l0.217,16.695
						L814.371,751c0,0,2.166,21.146,1.949,16.698c-0.223-4.442,1.516-20.528,1.516-20.528s2.168,14.559,1.951,13.481
						c-0.217-1.071,1.084-20.376,1.084-18.997c0,1.382,1.076,13.023,0.865,14.859c-0.219,1.841,2.598-17.618,2.598-16.547
						c0,1.076,1.727,16.24,1.52,17.469c-0.217,1.226,0.207-16.086,0-14.556c-0.217,1.536,1.941,13.327,1.729,13.79
						c-0.217,0.46,0.867-11.029,0.867-11.029s0,7.659,0,8.423c0,0.768,2.381-7.2,2.381-7.2l0.219,13.334
						c0,0,1.736-16.551,1.736-15.171c0,1.379,1.514,6.896,1.514,9.037c0,2.145,5.201,7.508,5.201,7.508l0.215-17.62
						c0,0,1.301,11.648,1.084,13.484c-0.217,1.839,1.732-14.25,1.732-12.717c0,1.531,1.297,11.794,1.08,12.564
						c-0.211,0.764,3.9-12.412,3.9-12.412v15.475c0,0,3.25-16.395,3.031-17.159c-0.217-0.762,1.951,9.505,1.951,9.505l2.381-9.505
						c0,0,2.387,13.794,2.387,14.402c0,0.614,1.947-12.104,1.947-12.104s3.031,6.437,3.031,8.273c0,1.841,0-16.856,0-16.856
						s4.768,12.722,4.555,14.25c-0.221,1.539,3.463-4.901,3.896-7.046c0.432-2.146,6.496,11.645,6.496,11.645v-19.612
						c0,0,5.631,19.916,5.631,18.541c0-1.379,0.873-19.917,0.65-18.385c-0.211,1.53,2.387,33.396,2.387,16.396
						c0-17.012,0-25.59,0-24.209c0,1.379,4.768,13.173,4.768,13.783c0,0.615,1.516-15.009,1.516-14.243
						c0,0.765,0.432,16.546,0.432,16.546l3.686-14.861c0,0,1.73,7.503,1.516,8.118c-0.219,0.615,0.436-12.716,0.436-11.949
						c0,0.765,1.945,12.409,1.945,13.328c0,0.921-0.217-7.508,0.438-7.812c0.648-0.312,3.248,13.479,3.248,13.943
						c0,0.456,2.383-18.541,2.164-17.624c-0.219,0.923,2.822,9.96,2.822,9.96s1.514-14.092,1.514-11.646
						c0,2.456,2.16,8.278,2.16,8.278l11.264-13.181c0,0,3.254,15.477,3.039,14.405c-0.217-1.07,0-18.081,0-18.081
						s5.631,7.357,5.631,8.886c0,1.536,1.297-11.333,1.52-9.036c0.217,2.3,1.732,11.948,1.732,11.948s3.244-12.562,3.029-9.807
						c-0.215,2.759,0,9.042,0,9.042s10.398-19.151,10.398-17.466c0,1.685,0,17.159,0,17.159s4.117-15.631,4.117-14.402
						s1.729,17.159,2.164,15.473c0.436-1.682,4.545-17.771,4.545-17.771s2.387,14.706,2.387,13.025
						c0-1.688,0.434-14.403,0.434-13.025c0,1.377,1.734,9.041,1.734,7.354c0-1.685,1.084-8.883,1.084-8.883
						s2.383,9.651,2.383,10.108c0,0.462,1.734-13.939,1.734-13.326s4.115,13.326,3.895,13.788c-0.215,0.458,3.248-7.971,3.248-7.971
						s2.816,22.523,2.6,5.672c-0.217-16.854,2.602-21.299,2.602-25.281c0-3.979,1.945,30.186,1.945,30.186l3.9-18.08
						c0,0,1.953,18.54,1.953,18.994c0,0.465,2.383-19.604,2.383-19.604l2.602,9.955c0,0,1.951-16.238,1.729-17.004
						c-0.215-0.764,8.234,13.787,8.234,13.787l0.217-12.871c0,0,2.383,16.088,2.383,12.26s3.68-27.73,3.68-27.73l1.736,24.664
						l3.467-16.541c0,0,1.295-7.205,2.381-5.977c1.084,1.227,3.033,13.939,3.033,13.939s4.33-14.706,4.764-14.093
						c0.436,0.609,4.121,10.876,4.121,10.876s2.596-15.321,2.379-13.789c-0.217,1.53,1.734,14.094,1.734,14.094
						s0.215-20.836,0.215-18.995c0,1.836,4.334,15.93,4.117,17.159c-0.219,1.227,2.166-17.925,2.166-14.859
						c0,3.062,1.301,18.075,1.301,18.075l3.684-32.633l6.5,25.894l3.68-18.082l2.816,16.855l1.518-19.921
						c0,0,4.982,18.39,4.982,18.846c0,0.464,0.648-24.357,0.648-23.438c0,0.921,4.768,20.377,4.768,20.833
						c0,0.464,7.799-37.993,7.799-37.993s5.195,34.471,4.979,35.085c-0.215,0.612,2.389-30.182,2.17-29.106
						c-0.221,1.071,1.516,25.429,1.297,25.739c-0.215,0.304,3.252-32.176,3.252-31.255c0,0.919,0.867,21.754,0.867,21.754
						l2.385-20.375c0,0,0.646,23.748,0.646,18.537c0-5.212,8.016-19.763,7.797-14.4c-0.215,5.36,0.654-2.758,0.654-2.758
						l2.594-6.435c0,0,3.469,17.31,3.469,18.845c0,1.53,0-17.771,1.084-11.183c1.088,6.585,1.949,27.573,2.816,16.544
						c0.861-11.028,3.463-23.287,3.244-21.294c-0.211,1.989,3.686,21.754,3.686,18.075c0-3.678,2.818-22.673,2.818-21.446
						c0,1.223,1.516,11.488,1.516,12.869c0,1.375,9.748-16.855,9.748-16.855s0.646,18.54,0.646,20.686s1.736-28.035,1.736-28.035
						s4.98,14.401,4.766,15.78c-0.221,1.376,4.555-17.624,4.33-17.16c-0.217,0.461,1.953,20.533,1.953,21.907
						c0,1.377,3.029-21.604,3.029-21.604s5.418,16.085,5.205,16.697c-0.223,0.615,4.549-22.668,4.979-18.993
						c0.434,3.676,5.85,28.034,5.85,28.034l2.596-22.367c0,0,4.988,19.768,4.768,18.842c-0.213-0.915,2.166-7.351,2.166-11.027
						c0-3.679,6.068-20.988,6.068-20.988l3.9,31.714c0,0,3.896-31.101,3.896-29.264c0,1.841,4.117,19.917,4.117,19.917l4.332-21.906
						l2.6,18.691c0,0,18.629-16.091,18.41-18.846c-0.217-2.756,2.166-13.938,2.166-12.256c0,1.686,5.199,25.276,5.418,22.213
						c0.219-3.062,2.6-22.673,2.6-21.142s1.082,37.071,3.469,18.997c2.381-18.076,5.633-32.326,5.412-29.569
						c-0.217,2.759,0,30.948,0.221,26.503c0.213-4.439,4.98-24.205,4.98-21.752c0,2.45,3.031,20.838,3.031,19.148
						c0-1.688,6.713-12.56,6.713-12.56l4.119-11.797l8.018,28.344l7.799-29.723l7.363,41.672l1.73-56.992l14.734,56.683l6.93-67.406
						l10.83,59.133l-0.863-51.476l10.396,41.979l6.064-44.734l14.73,53.927v-49.641l16.461,34.016l4.768-40.752l6.936,50.25
						l65.422-50.561l-3.41,147.075C1435.275,721.735,758.476,797.417,751.974,792.207z"/>
					<path clip-path="url(#SVGID_140_)" fill="#231B3C" d="M778.621,781.186c0.51,1.918,0.414,3.964,0.955,5.854
						c0.74-1.795,0.703-4.099,2.268-5.679c0.48,1.317,1.395,3.024,2.525,3.904c1.506-1.83,1.783-3.763,3.449-5.625
						c0.633,1.074,0.42,2.67,1.502,3.69c1.557-2.014,1.621-4.64,3.809-6.253c0.416,0.789,2.203,1.711,2.846,2.257
						c1.035-1.38,1.5-2.812,2.664-4.178c-0.164,1.183,0.91,1.711,1.67,2.378c1.332-1.335,1.498-2.773,2.061-4.15
						c1.646,0.238,2.623,0.683,2.992,1.855c0.73-0.101,1.592-0.128,2.322-0.241c0.896,1.366,1.072,2.867,1.883,4.211
						c1.336-1.72,2.297-3.858,3.756-5.615c0.021,0.938,0.602,1.931,0.623,2.859c0.863-1.211,1.219-2.708,1.439-4.036
						c0.721-0.016,1.383,0.282,1.877,0.483c0.207-0.271,0.713-1.104,1.145-1.356c0.189,0.401,0.91,1.025,0.973,1.644
						c0.389-1.229,0.764-2.49,1.533-3.716c0.355,0.685,1.684,1.594,2.059,2.334c0.605-1.184,0.854-2.469,1.352-3.634
						c0.117,1.078,0.834,1.953,1.559,2.63c1.09-4.272,2.568-9.385,5.574-13.608c0.916,4.532,1.012,9.197,1.854,13.734
						c5.471-2.953,3.926-12.562,4.922-16.175c0.834-3.067,1.221-7.226,4.625-10.083c1.539,7.396,1.496,14.979,2.215,22.467
						c-0.562-4.646,0.486-9.569,0.359-14.284c-0.072-2.861-0.908-6.715,1.771-9.66c2.271,7.395-0.395,16.978,4.314,23.657
						c3.266-6.664-1.33-13.243,0.838-19.904c0.709,6.772,0.73,13.819,2.604,20.425c4.117-6.771-2-13.964,3.354-20.727
						c2.811,5.938-0.916,13.699,3.35,19.209c0.332-4.761-5.436-13.248-1.418-17.565c2.838,2.036,3.686,6.146,3.699,8.849
						c-0.932-5.196,1.805-12.539,5.338-17.812c1.668,5.069,2.084,10.701,2.145,16.004c0.867-7.233,2.801-15.599,6.887-22.763
						c2.16,6.382,1.824,13.385,2.588,19.979c-0.926-5.027-1.312-11.896,3-17.083c1.85,6.524,2.146,13.545,2.529,20.272
						c1.816-8.117,1.672-16.404,5.645-24.549c2.873,5.768,4.764,14.859,2.424,21.256c-1.209-6.169,0.799-12.583,2.408-18.94
						c3.639,5.371,2.273,13.244,2.826,19.353c1.02-9.005,6.846-19.964,13.898-28.858c2.535,7.504,2.059,16.317-0.875,24.312
						c-0.984-6.309,2.229-15.76,7.26-22.224c3.648,6.954,3.039,16.118,3.293,23.739c1.227-7.725,3.271-15.521,5.156-23.275
						c2.703,4.934,2.004,10.632,5.146,15.424c1.064-4.326-0.729-10.731,5.201-14.761c2.572,3.854,2.182,9.304,2.193,13.685
						c3.662-6.326,1.412-16.529,10.219-22.121c1.367,5.409-0.568,11.057,0.176,16.472c-0.895-7.979,1.635-16.32,0.883-24.266
						c2.416,10.683,6.527,21.392,6.52,32.393c2.301-8.186,6.414-16.491,8.785-24.729c1.104-3.83,0.992-9.241,4.047-12.955
						c1.984,9.745,2.756,19.696,4.5,29.457c1.289-5.077,2.42-10.105,3.256-15.161c2,7.652-0.57,18.907,6.971,25.284
						c5.576-2.953,4.645-9.564,5.213-12.887c1.336-7.863,1.689-16.333,6.502-24.232c3.059,3.442,2.057,10.133,2.439,14.233
						c0.455,4.934-1.277,9.976-0.92,14.875c1.17-9.5,1.398-21.483,8.482-30.873c1.584,4.886,1.365,10.225,1.998,15.254
						c0.182,1.493-0.777,5.721,1.904,6.402c4.523-6.918,1.393-15.305,0.686-22.05c-0.172-1.6-2.258-5.243,1.809-6.372
						c5.004,5.721,4.232,13.158,5.029,19.696c-1.363-7.138,0.062-15.86,2.291-23.259c0.818-2.712,1.822-6.869,5.393-9.338
						c3.146,2.677,1.67,8.563,2.102,12.027c0.395,3.204,1.002,6.402,1.102,9.643c4.16-6.841,5.338-13.966,7.9-20.599
						c5.533,6.706,4.566,15.73,5.52,23.368c-0.432-3.412-0.709-6.854-1.365-10.237c2.318,6.163,6.676,16.012,15.457,20.229
						c-0.094-6.706-1.541-13.396-2.373-20.052c0.809,6.283,0.896,12.634,1.627,18.922c1.33-5.985,0.787-12.113,3.846-18.128
						c3.137,5.651,1.039,13.45,6.453,18.557c3.941-7.351,1.398-15.78,1.398-23.062c2.777,5.277,2.016,12.285,2.75,18.183
						c-0.789-6.334-2.053-12.64-2.266-19.039c-0.09-2.464-1.09-5.697,2.715-8.024c1.016,8.351,10.836,15.058,10.684,23.646
						c0.77-6.562,5.365-13.479,7.438-20.082c1.783-5.696,2.473-11.502,6.174-17.178c1.516,7.099,2.293,14.45,2.664,21.694
						c-0.205-7.443,0.26-17.876,5.553-25.464c3.748,6.293,2.979,14.308,4.188,21.022c0.684,3.815-0.039,9.886,3.059,13.271
						c5.875-7.4-5.951-18.232,3.867-25.274c8.32,4.689,5.318,16.438,7.1,23.201c0.441-0.741,0.383-1.971,0.137-2.929l3.66-22.786
						l6.369,19.944l6.541-25.69l4.111,27.875l5.156-31.584c0,0,3.656,34.637,3.277,26.39c-0.375-8.246,1.447-30.163,1.447-30.163
						l3.344,16.491l1.256-21.211l4.305,18.927l12.441-25.153c0,0,4.279,24.028,3.801,25.367c-0.482,1.332,0.375-33.54,0.688-31.027
						c0.309,2.513,5.203,36.673,5.203,36.673s-0.943-33.694-1.389-32.046c-0.441,1.655,6.244,24.111,5.795,25.753
						c-0.439,1.656,0.572-31.965,2.029-25.444c1.457,6.517,3.762,25.047,3.645,24.103c-0.113-0.938,0.555-26.857,0.791-24.975
						c0.23,1.887,4.174,33.61,4.174,33.61l2.117-29.926c0,0,1.955,15.705,2.617,21.048c0.662,5.336,10.389-31.277,10.389-31.277
						s5.516,39.188,5.346,43.036c-0.164,3.85,1.826-37.549,1.826-37.549s6.021,43.272,4.371,35.187
						c-1.654-8.091-5.035-40.523-5.035-40.523s11.871,22.449,12.256,25.592c0.396,3.139,8.242-32.925,8.242-32.925
						s6.439,51.832,5.539,44.606c-0.896-7.224,1.711-38.486,1.711-38.486l3.822,30.784c0,0-3.354-42.645-2.264-33.852
						c0,0,14.873,36.11,14.385,37.449c-0.48,1.334,9.396-34.027,9.111-31.116c-0.289,2.908,5.084,35.732,3.982,32.044
						c-1.115-3.695,4.025-40.696,4.609-35.984c0.59,4.715,3.969,37.147,3.863,31.102c-0.105-6.045,6.109-29.147,6.109-29.147
						s4.746,43.428,3.902,31.414c-0.848-12.02-0.443-40.138-0.189-32.836c0.262,7.312,4.791,43.75,3.201,25.761
						c-1.58-17.981,1.256-47.362,2.139-35.033c0.885,12.331,5.791,41.389,4.217,33.926c-1.572-7.458-1.195-30.47-1.402-26.938
						c-0.213,3.533,5.918,52.853,3.512,28.271c-2.408-24.577-1.604-39.031-1.502-32.987c0.1,6.05-0.312-18.145,1.627,2.668
						c1.938,20.813,2.584-10.525,2.941-7.698c0.346,2.824,3.076,24.812,3.312,26.697c0.234,1.884,4.678-30.244,4.678-30.244
						l5.885,36.91l-1.703-34.56c0,0,4.293,34.554,5.354,27.402c1.059-7.146,7.771-36.688,7.771-36.688l5.447,33.454l9.234-45.801
						l9.521,34.854l-1.248-10.05l-3.785-30.47c0,0,15.652,26.767,15.359,29.671c-0.285,2.907,2.895-34.168,2.895-34.168
						l12.963,31.246l13.846,43.573l-19.057,18.955l-239.285,79.159l-281.521,36.89l17.697-19.422l35.209-14.266l-156.359,15.599"/>
					
						<linearGradient id="SVGID_149_" gradientUnits="userSpaceOnUse" x1="324.6104" y1="215.6987" x2="518.7617" y2="215.6987" gradientTransform="matrix(1 0 0 -1 116 1070.8477)">
						<stop  offset="0" style="stop-color:#FFFFFF"/>
						<stop  offset="0.7207" style="stop-color:#B0CEDB"/>
					</linearGradient>
					<path clip-path="url(#SVGID_140_)" fill="url(#SVGID_149_)" d="M588.56,834.885h-8.674c0,0,0.5,3.503-0.168,3.503
						s-7.342,0-7.342,0l5.008,4.171l-37.366,2.833l12.013,3.171l-111.42,8.171l30.689,14.514l65.386,4.166l72.72-24.35
						l25.356-11.344l-13.679-3.169l-8.837-0.67l-11.178-0.164l-2.003,1.165l-7.506-0.332L588.56,834.885z"/>
					
						<linearGradient id="SVGID_150_" gradientUnits="userSpaceOnUse" x1="434.6875" y1="336.1201" x2="1311.3687" y2="336.1201" gradientTransform="matrix(1 0 0 -1 116 1070.8477)">
						<stop  offset="0.0671" style="stop-color:#898A3B"/>
						<stop  offset="0.1851" style="stop-color:#87893C"/>
						<stop  offset="0.49" style="stop-color:#D1C96D"/>
						<stop  offset="0.9486" style="stop-color:#7E7749"/>
					</linearGradient>
					<path clip-path="url(#SVGID_140_)" fill="url(#SVGID_150_)" d="M1427.369,598.872c0,0-76.059,45.03-91.576,51.537
						c-15.508,6.503-171.625,61.547-171.625,61.547l-38.535,18.015l-93.066,6.002c0,0-7.512,7.51-11.014,8.012
						c-3.498,0.5-78.055,4.5-78.055,4.5s-84.064,3.5-130.1,40.032c-46.035,36.527-65.555,31.523-77.061,31.523
						c-11.51,0-109.085,25.017-131.1,27.017c-22.018,2.004-52.542,23.02-54.541,23.521c-2.002,0.499,339.254-39.028,339.254-39.028
						l323.756-72.556l212.158-57.546L1427.369,598.872z"/>
					
						<linearGradient id="SVGID_151_" gradientUnits="userSpaceOnUse" x1="599.1553" y1="383.7437" x2="599.1553" y2="88.1831" gradientTransform="matrix(1 0 0 -1 116 1070.8477)">
						<stop  offset="0.2368" style="stop-color:#898A3B"/>
						<stop  offset="0.4789" style="stop-color:#7E7749"/>
						<stop  offset="0.9809" style="stop-color:#44362F"/>
					</linearGradient>
					<polygon clip-path="url(#SVGID_140_)" fill="url(#SVGID_151_)" points="1424.416,687.104 1218.208,729.137 1152.158,750.483 
						1114.794,750.483 1089.445,760.492 1074.761,760.492 857.263,815.202 839.914,825.878 730.5,841.222 609.744,849.896 
						537.688,875.25 472.301,870.577 431.604,853.232 302.17,855.232 222.779,835.886 158.06,823.875 85.339,815.87 5.905,817.205 
						4.612,982.664 1425.699,982.664 					"/>
					
						<linearGradient id="SVGID_152_" gradientUnits="userSpaceOnUse" x1="-110.0952" y1="274.3281" x2="436.1963" y2="274.3281" gradientTransform="matrix(1 0 0 -1 116 1070.8477)">
						<stop  offset="0.0671" style="stop-color:#898A3B"/>
						<stop  offset="0.1851" style="stop-color:#87893C"/>
						<stop  offset="0.49" style="stop-color:#D1C96D"/>
						<stop  offset="0.9486" style="stop-color:#7E7749"/>
					</linearGradient>
					<path clip-path="url(#SVGID_140_)" fill="url(#SVGID_152_)" d="M552.196,848.562l-180.135,14.009l-226.678-7.507L5.905,829.878
						v-99.41l200.026,61.047c0,0,26.521-0.498,29.521,0c3.001,0.502,16.515,10.511,16.515,10.511l32.022,1.501l63.049,19.016
						c0,0,30.022-1.501,33.526-1.001c3.502,0.502,58.544,4.505,58.544,4.505l21.519,5.503l24.016,4.505l35.526,8.001h15.01
						L552.196,848.562z"/>
					
						<linearGradient id="SVGID_153_" gradientUnits="userSpaceOnUse" x1="-86.5713" y1="544.3682" x2="67.0187" y2="697.9581" gradientTransform="matrix(1 0 0 -1 116 1070.8477)">
						<stop  offset="0" style="stop-color:#241C14"/>
						<stop  offset="0.6203" style="stop-color:#312614"/>
						<stop  offset="0.9144" style="stop-color:#483C25"/>
					</linearGradient>
					<path clip-path="url(#SVGID_140_)" fill="url(#SVGID_153_)" d="M7.972,505.023c0,0,24.498,22.882,37.767,27.171
						c13.267,4.292,17.353,8.583,29.6,10.01c12.251,1.43,59.207-1.426,59.207-1.426s8.162-7.152,27.557-5.723
						c19.395,1.432,47.975-2.86,47.975-2.86s18.373-7.15,18.373-21.453c0-14.299-12.249-38.611-12.249-38.611
						s13.27-28.607,4.082-34.329c-9.186-5.721,6.125-18.589-11.229-31.463c-17.352-12.872-16.33-12.872-25.517-27.173
						c-9.186-14.302-11.229-24.31-35.724-27.171c-24.499-2.86-59.203,14.298-74.515,14.298c-15.309,0-6.126-18.588-24.5-22.879
						c-18.371-4.292-25.516,10.008-36.744,12.872c-11.229,2.862-6.503,10.007-6.503,10.007L7.972,505.023z"/>
					
						<linearGradient id="SVGID_154_" gradientUnits="userSpaceOnUse" x1="-34.9839" y1="421.0342" x2="-105.7273" y2="461.878" gradientTransform="matrix(1 0 0 -1 116 1070.8477)">
						<stop  offset="0" style="stop-color:#51431A"/>
						<stop  offset="0.9428" style="stop-color:#311E1E"/>
					</linearGradient>
					<polygon clip-path="url(#SVGID_140_)" fill="url(#SVGID_154_)" points="43.308,715.125 36.637,661.087 40.637,630.393 
						37.301,597.036 47.979,543.66 47.979,696.447 					"/>
					
						<linearGradient id="SVGID_155_" gradientUnits="userSpaceOnUse" x1="175.3457" y1="908.959" x2="328.9343" y2="1062.5476" gradientTransform="matrix(0.5158 -0.8567 -0.8567 -0.5158 761.7667 1106.7773)">
						<stop  offset="0.0856" style="stop-color:#483C25"/>
						<stop  offset="1" style="stop-color:#241C14"/>
					</linearGradient>
					<path clip-path="url(#SVGID_140_)" fill="url(#SVGID_155_)" d="M45.273,494.729c0,0,32.241-9.186,42.761-18.338
						c10.521-9.151,16.299-10.438,23.845-20.194c7.543-9.754,4.483-35.964,4.483-35.964s22.916-26.179,34.145-42.051
						c11.23-15.876-6.124-30.005-6.124-30.005s40.031-12.007,19.523-39.375c-8.579-11.443-39.398-9.426-39.398-9.426
						s-17.662-26.125-27.301-21.202c-9.637,4.92-12.766-14.838-32.749-6.611c-19.975,8.226-19.448,7.353-36.443,7.843
						c-16.989,0.49-26.616-2.923-41.704,16.593c-15.088,19.504-18.285,58.088-26.186,71.206
						c-7.897,13.116-19.088-4.346-32.239,9.185c-13.154,13.527-4.586,27.024-7.93,38.121c-3.338,11.095,5.224,10.734,5.224,10.734
						L45.273,494.729z"/>
					
						<linearGradient id="SVGID_156_" gradientUnits="userSpaceOnUse" x1="-5.1577" y1="542.7441" x2="-121.6297" y2="659.2161" gradientTransform="matrix(1 0 0 -1 116 1070.8477)">
						<stop  offset="0.1377" style="stop-color:#241C14"/>
						<stop  offset="0.6872" style="stop-color:#483C25"/>
					</linearGradient>
					<path clip-path="url(#SVGID_140_)" fill="url(#SVGID_156_)" d="M-1.22,510.304c0,0,13.289,16.013,20.488,19.012
						c7.191,3,9.409,6.003,16.05,7.004c6.645,1.002,32.114-1.001,32.114-1.001s4.425-5,14.946-4
						c10.521,0.998,26.021-2.002,26.021-2.002s9.965-5.002,9.965-15.012c0-10.008-6.644-27.02-6.644-27.02
						s7.195-20.015,2.212-24.023c-4.982-3.999,3.324-13.008-6.088-22.013c-9.414-9.005-8.859-9.005-13.839-19.013
						c-4.984-10.01-6.087-17.015-19.38-19.018c-13.286-2.003-32.11,10.007-40.415,10.007c-8.302,0-3.318-13.01-13.284-16.011
						c-9.966-3.004-13.843,7.004-19.932,9.006c-6.09,2-3.527,7.004-3.527,7.004L-1.22,510.304z"/>
					
						<linearGradient id="SVGID_157_" gradientUnits="userSpaceOnUse" x1="7.8682" y1="475.8164" x2="209.9424" y2="475.8164" gradientTransform="matrix(1 0 0 -1 116 1070.8477)">
						<stop  offset="0" style="stop-color:#241C14"/>
						<stop  offset="0.6203" style="stop-color:#312614"/>
						<stop  offset="0.9144" style="stop-color:#483C25"/>
					</linearGradient>
					<path clip-path="url(#SVGID_140_)" fill="url(#SVGID_157_)" d="M141.381,635.896c0,0,17.014-3,26.022-6.008
						c9.004-3,14.509-4.997,24.017-2.497c9.505,2.497,25.017-15.513,31.022-5.006c6.007,10.511,13.01,12.011,27.523,10.511
						c14.511-1.505,15.014-6.008,37.527-3.008c22.519,3.008,41.532-3,38.033-6.502c-3.502-3.502-20.517-6.507-27.525-15.012
						c-7.003-8.507-22.015-19.512-29.021-19.015c-7.004,0.5-10.009-19.016-12.51-19.016c-2.5,0-21.515-0.498-33.024-1
						c-11.51-0.498-12.509-12.008-21.018-11.507c-8.505,0.5-16.012-8.507-28.019,0c-12.01,8.506-8.509,9.508-16.516,12.009
						c-8.006,2.5-34.024,40.528-34.024,40.528L141.381,635.896"/>
					<path clip-path="url(#SVGID_140_)" fill="#5C5324" d="M47.809,620.888c0,0,3.003,3.5,7.005,7.506
						c4.003,4.001,3.001-4.006,4.003,4.001c1.001,8.006,7.507,1.502,9.509,1.502c2,0,17.512,107.579,17.512,107.579l-66.549-39.528
						l28.02-78.562L47.809,620.888"/>
					
						<linearGradient id="SVGID_158_" gradientUnits="userSpaceOnUse" x1="-56.3462" y1="423.6064" x2="113.1162" y2="423.6064" gradientTransform="matrix(1 0 0 -1 116 1070.8477)">
						<stop  offset="0.1477" style="stop-color:#432623"/>
						<stop  offset="0.4397" style="stop-color:#311B12"/>
						<stop  offset="0.6123" style="stop-color:#2C1B1A"/>
					</linearGradient>
					<path clip-path="url(#SVGID_140_)" fill="url(#SVGID_158_)" d="M151.057,774.84l39.03-61.384l39.029-81.393V608.04
						l-41.367,85.071l-16.012-74.395l-8.008-2.333l11.011,80.394l1.001,9.675l-34.028,38.363c0,0-2,5.669-1.331-5.673
						c0.665-11.341,3.669-219.5,3.669-219.5l-84.397,0.334l2.667,235.179L151.057,774.84z"/>
					<polygon clip-path="url(#SVGID_140_)" fill="#2C1B1A" points="49.976,819.207 48.307,781.512 56.315,773.838 80.664,679.433 
						157.725,583.025 174.404,527.65 167.066,519.307 153.722,566.012 131.038,523.312 124.033,523.312 143.048,573.35 
						67.989,656.748 48.307,696.11 48.643,497.957 5.905,497.957 5.905,831.549 					"/>
					
						<linearGradient id="SVGID_159_" gradientUnits="userSpaceOnUse" x1="-61.3521" y1="262.9839" x2="-61.3521" y2="399.7573" gradientTransform="matrix(1 0 0 -1 116 1070.8477)">
						<stop  offset="0.4132" style="stop-color:#51431A"/>
						<stop  offset="0.7207" style="stop-color:#311E1E"/>
					</linearGradient>
					<polygon clip-path="url(#SVGID_140_)" fill="url(#SVGID_159_)" points="31.965,801.191 35.966,765.167 46.644,759.157 
						74.666,671.091 77.332,679.765 74,709.122 56.315,773.838 48.307,781.512 49.976,807.864 					"/>
					<path clip-path="url(#SVGID_140_)" fill="#524A1E" d="M254.721,850.062c2.111-0.079,4.169,1.314,6.224,1.781
						c2.571,0.574,5.178,0.553,7.789,0.437c-0.572-3.694,3.069-4.411,5.809-2.703c4.783,2.979,3.968,8.725,1.373,12.504
						c-4.575,6.663-10.726,8.053-18.805,8.295c-8.272,0.248-15.689-2.875-22.042-8.063c-2.416-1.968-2.915-3.146-5.548-4.179
						c-12.786-5.026-26.349-10.577-37.903-18.145c-2.288-1.5-4.081-3.821-6.413-5.17c-0.972-0.559-2.096-0.589-3.048-1.071
						c-3.577-1.804-8.567-11.012-3.517-13.946c1.809-1.057,3.069,0.485,4.337-1.562c2.823-4.551-5.865-3.637-8.28-3.728
						c-0.157-2.675-0.084-5.684-3.755-5.235c-0.133,1.471,1.159,4.302,0.931,5.277c-0.369,1.557-2.382,1.337-3.557,2.178
						c-0.367,0.262-1.667,2.17-1.578,2.134c-2.423,1.036-4.294-1.366-5.859-2.799c-1.284-1.184-2.31-2.035-3.922-2.231
						c-1.656-0.203-3.176,1.555-4.047-1.032c-0.868-2.569,2.598-3.662,3.452-5.501c0.609-1.307,0.297-3.055-0.224-4.238
						c1.6-0.267,3.069,0.363,4.489,0.979c0.331-3.322-2.204-5.595-4.433-7.922c-2.832-2.959-4.418-3.812-4.561-8.073
						c-0.121-3.616,1.799-6.759,6.246-6.055c3.405,0.537,1.918,4.101,2.038,7.252c1.893,0.562,4.53-0.488,6.238,0.287
						c2.824,1.278,2.461,3.302,6.24,3.488c3.485,0.171,5.012-0.217,5.973-3.78c0.576-2.146,1.105-7.388-0.228-9.097
						c-0.624-0.8-2.398-1.384-3.219-2.101c-1.419-1.229-2.966-3.069-3.852-4.722c-1.911-3.571-2.116-7.917-1.915-11.862
						c0.439-8.701,10.735,1.413,14.23,2.537c0.086-2.231-0.212-4.215,0.769-6.197c0.648-1.312,1.823-2.633,2.52-3.821
						c0.846-1.446,1.756-2.996,2.003-4.806c0.193-1.354-0.451-2.706,0.503-3.506c3.83-3.193,6.046,4.859,9.693,0.262
						c1.193-1.503,0.373-3.221,3.038-2c1.91,0.88,2.702,3.269,4.995,3.771c0.118,2.643-0.076,5.303,0.046,7.944
						c1.653,0.423,3.279-0.516,4.969,0.11c2.165,0.803,3.673,2.091,5.977,2.708c2.642,0.709,4.862,0.845,7.523,1.281
						c2.088,0.343,2.369,0.688,3.54,3.265c1.537,3.38,1.017,1.459,4.014,2.488c1.94,0.658,1.489,0.807,1.479,3.247
						c-0.013,3.293-1.17,2.832-3.164,5.434c-1.29,1.676-1.545,4.162-3.554,5.116c-0.307,1.774,0.923,5.086,2.387,6.176
						c1.104,0.822,2.772,0.565,3.937,1.256c-2.317,1.796-7.197,2.72-8.375,5.521c-0.502,1.193,0.262,2.92-0.313,4.225
						c-0.572,1.293-2.968,2.252-3.193,3.338c-0.37,1.798,1.377,3.18,3.19,2.799c2.008-0.42,1.976-2.605,3.074-3.861
						c1.866-2.131,3.796-1.102,6.261-1.249c1.83,3.229,1.028,6.993-0.003,10.011c-0.708,2.065-2.216,10.4-4.73,9.465
						c-0.168,0.548-0.102,1.515,0.063,2.04c1.095,0.309,2.1-0.126,2.665-1.023c2.344,2.39,0.779,3.142,4.259,4.052
						c1.779,0.459,2.445,0.8,3.691,2.238c0.015-0.275,0.062-0.549,0.132-0.814c1.82,1.076,7.824,4.178,9.447,1.398
						c0.33,6.932-4.352,9.104-10.229,9.188c-0.515,3.172,1.894,5.34,4.614,6.664c2.196,1.076,4.832-0.003,6.81,1.053
						c1.514,0.809,5.775,5.83,3.082,7.151c-0.231,0.499,0.193,0.472,0.219,0.638"/>
					<path clip-path="url(#SVGID_140_)" fill="#A9994A" d="M306.085,875.808c4.275-0.276,8.599,0.23,12.881-0.022
						c2.019-0.123,6.532,0.344,8.236-0.648c1.736-1.011,1.703-3.203,1.822-4.963c0.328-4.799-3.824-2.391-6.067-5.363
						c-1.902-2.516,5.072-4.193,6.276-6.727c-1.905-1.756-4.629-1.098-6.896-1.742c-2.251-0.644-2.524-1.311-3.769-3.104
						c-1.389-2.006-3.451-3.848-3.567-6.348c-0.168-3.755,4.447-4.435,4.728-7.333c0.29-3.018-6.198-1.795-7.907-1.313
						c-0.407-2.811,2.959-5.903,4.917-7.388c1.755-1.325,2.058-0.878,2.608-3.338c0.461-2.082,0.845-4.418,0.437-6.544
						c-0.566-2.932-1.681-2.306-4.503-2.495c-0.079-1.293-0.285-2.672,0.562-3.696c-2.026-0.683-10.853,1.928-10.853-0.401
						c-2.67-0.819-5.444-2.007-7.54-3.902c-0.956-0.87-1.569-2-2.432-2.902c-0.264-0.275,0.233-0.988-0.051-1.242
						c-0.926-0.84-4.702-1.095-5.711-0.593c-1.66,0.823-1.65,2.687-1.499,4.498c-0.804-3.885-4.059-6.243-7.999-5.662
						c-0.085,2.611,0.674,5.486-0.985,7.455c-1.724,2.04-3.96,1.632-6.244,1.797c-0.305,3.721,0.339,7.782-0.107,11.381
						c-0.508,0.03-1.101,0.429-1.627,0.387c-0.438,2.257,4.391,1.062,5.216,2.906c1.193,2.656-5.641,6.857-7.803,7.091
						c-0.069-0.217-0.151-0.474-0.217-0.759c-3.565-0.17-6.702,0.537-9.778-1.704c-2.001-1.46-2.746-3.213-5.48-2.864
						c-0.858,3.648,5.355,7.02,7.308,9.565c-2.92,2.603-7.782,1.662-8.592,6.548c-1.377,8.289,8.61,9.33,14.534,9.438
						c0.639,2.834,2.765,6.32,4.766,8.385c1.963,2.022,3.889,2.008,6.433,2.63c0.678,0.171,1.369-0.151,2.015,0.084
						c0.345,0.673,0.815,1.249,1.415,1.729c1.549,1.467,3.751,2.943,5.557,4.06c2.343,1.44,6.624,3.759,9.54,3.606
						c0.069-0.005,0.519-0.752,1.169-0.76c0.813-0.006,2.055,1.697,2.758,2.08C303.191,879.565,302.563,876.038,306.085,875.808z"/>
					<path clip-path="url(#SVGID_140_)" fill="#C1A876" d="M317.515,814.787c0.035-0.336,0.062-0.667,0.092-0.995
						c3.411-37.036,3.411-37.036,3.411-37.036s2.754,34.525,3,28.773c0.253-5.755,2.755-16.764,2.755-16.764l4.5,29.771
						l8.262-54.542l6.505,60.547l3.251-54.796c0,0,6.502,59.548,6.752,58.299c0.253-1.253,1.004-52.044,1.004-52.044l8.253,51.794
						l-47.752-13.346"/>
					<path clip-path="url(#SVGID_140_)" fill="#8A7F46" d="M436.108,873.331c0-2.315-0.065-4.659,0.02-6.967
						c2.499-0.775,2.636-0.576,2.979-2.999c0.707-4.988-4.443-6.237-7.532-9.048c-2.999-2.729-0.441-5.808-2.378-9
						c-1.783-2.938-5.362-1.899-8.312-2.044c-0.566-2.74,11.126-20.75,4.615-21.019c-1.08-0.042-2.465,1.513-3.389,2.035
						c-1.526,0.868-2.851,1.144-4.526,1.557c-1.066,0.267-5.467,2.243-6.504,1.373c-2.467-2.061,0.736-4.504,2.14-5.184
						c2.987-1.442,3.937-1.926,3.9-5.462c3.306-0.122,6.921-1.833,7.234-5.722c-1.861-0.934-7.095-4.264-6.32-7.064
						c0.801-2.878,6.546-3.597,8.152-6.312c2.565-4.334-4.92-9.981-6.579-4.927c-0.967-1.269-1.292-3.179-1.562-4.794
						c-3.206-0.012-8.227,1.13-10.978-0.756c-1.387-0.95-1.715-3.713-3.482-4.008c-1.438-0.233-2.253,1.543-3.828,1.028
						c-1.533-0.496-1.624-2.059-1.392-3.491c0.138,0.027,0.583,0.027,0.728,0.019c-2.486,2.112-4.183,1.211-4.516-1.373
						c-0.264-2.042,0.634-3.951-1.509-5.265c-2.187-1.34-8.099-1.121-7.706,2.537c-1.708-1.689-3.316-3.946-5.754-4.448
						c-0.717,2.847-0.751,5.744-0.589,8.523c-2.984,0.685-6.762,0.859-6.241,4.841c0.215,1.665,3.26,5.321,1.782,6.977
						c-1.551,1.744-6.921,0.173-8.468-0.875c-1.82-1.229-2.696-3.721-5.236-3.188c-1.441,4.364-3.654,6.646,1.166,9.679
						c2.443,1.531,4.691,2.622,6.26,5.232c0.919,1.536,1.783,6.879,0.781,8.602c-0.717,1.228-1.049,0.238-1.762,0.984
						c-1.186,1.239-0.979,4.148-2.187,5.299c-2.188,2.091-4.176-2.74-5.33-4.095c-0.692-0.808-1.596-2.416-2.95-1.968
						c-0.729,0.24-0.213,0.798-0.593,1.011c-1.007,0.559-0.296,1.469-2.226,1.187c-2.057-0.298-3.022-3.45-4.916-4.146
						c-3.856-1.426-8.794,1.214-6.659,5.789c1.865,3.989,11.294,4.434,8.872,10.461c-1.384,3.457-4.723,0.646-6.989,1.321
						c-0.918,3.45,2.599,2.201,3.504,3.873c1.609,2.978-3.055,5.473-5.25,5.324c-1.104,4.145,3.474,2.462,5.453,3.216
						c2.573,0.978,2.142,3.364,5.267,2.504c2.407-0.665,3.582-3.102,5.764-4.017c2.106-0.87,4.261,0.635,4.792-2.698
						c1.341,0.427,1.983,2.096,3.188,2.75c1.827,0.994,6.49,0.604,7.789,2.532c1.253,1.866-0.015,2.301-1.712,3.204
						c-2.932,1.56-2.2,1.956-2.334,5.479c-0.86-0.273-2.11-1.377-2.979-0.746c-0.82,0.59-0.44,2.762-0.771,3.605
						c-0.575,1.459-1.517,2.686-2.956,3.379c-1.786,0.862-5.352-0.32-6.487,0.983c-1.706,1.974,1.159,2.867-2.013,2.765
						c-2.247-0.067-4.764-2.588-6.635,0.411c-1.014,1.625-0.547,2.621-1.875,4.326c-1.43,1.841-3.452,3.457-4.539,5.353
						c-0.627,1.091,0.423,2.521-1.663,2.29c-0.178,0.552-0.196,1.543-0.042,2.127c0.233,0.081,0.437,0.007,0.67,0.074
						c0.704,3.078,2.524,2.631,5.587,2.5c5.643-0.235,11.425-2.179,16.915-2.787c8.738-0.977,18.793-0.534,27.887-0.767
						c5.667-0.15,11.194,1.163,16.892,1.479c7.729,0.423,15.41-1.137,22.907-0.771c2.719,0.134,3.395-0.717,5.43-1.444"/>
					<path clip-path="url(#SVGID_140_)" fill="#AAAC5A" d="M784.125,827.544c-1.221-2.864-2.523-6.717-5.967-7.525
						c-0.984-0.23-1.5,0.176-2.51,0.04c-2.785-0.38-3.031-1.727-4.518-3.948c-2.404-3.63-2.682,0.062-5.811,1.72
						c-3.305,1.748-6.207,0.425-9.148-1.055c-3.268-1.644-5.254-2.517-5.586-6.461c-0.082-0.969-0.523-4.081,0.045-4.987
						c1.119-1.763,4.133-0.495,5.469-1.354c2.729-1.763-1.676-5.259-2.652-7.603c-1.348-3.211-1.699-6.02,0.359-8.972
						c1.418-2.043,4.914-6.414,7.324-7.357c1.445-0.567,5.242-0.282,6.658,0.175c1.086,0.353,2.557,2.38,3.447,2.317
						c2-0.133,0.959-2.031,1.686-3.396c0.982-1.832,1.232-1.832,3.689-1.669c5.799,0.374,11.34,3.266,17.295,3.552
						c2.979,0.142,6.145,1.964,9.195,1.64c3.922-0.418,5.148-0.898,7.566,3.503c1.344,2.427,1.277,6.001,2.482,8.155
						c0.725,1.291,0.119,0.954,2.035,1.888c0.828,0.406,3.715,0.443,4.182,1.027c3.576,4.447-7.445,8.012-9.896,8.96
						c1.381,1.625,3.404,4.065,2.365,6.297c-1.051,2.262-5.711,3.62-7.877,4.042c-2.621,0.506-6.805-0.762-9.188,0.306
						c-3.293,1.478-1.895,5.896-4.652,7.222c-1.578,0.753-3.166-0.363-4.756,1.271c-0.883,0.91-0.578,2.339-1.744,2.714"/>
					<path clip-path="url(#SVGID_140_)" fill="#463727" d="M1111.378,759.995l6.004,1.998c0,0-0.504-14.009,6.502-20.517
						c7.004-6.506,17.512-13.007,17.768-19.261c0.244-6.256,2.002-19.269,2.002-19.269l-2.258-2.5c0,0,3.51,16.265-3.498,20.014
						c-7.01,3.756-16.014,15.512-16.014,15.512s-4.002-15.01-8.756-19.012c1.246-13.763,1.002-20.514,1.002-20.514l-5.258-2.256
						v15.762l-14.512-13.506l-6.506,3.002c0,0,22.52,16.01,24.516,28.02c2.004,12.011,6.762,2.003,2.506,19.015
						C1110.625,763.496,1111.378,759.995,1111.378,759.995z"/>
					<path clip-path="url(#SVGID_140_)" fill="#8B8C39" d="M1073.597,656.912c1.172,0.031-3.023-1.66-3.783-1.863
						c-2.164-0.599-4.062-0.796-3.928-3.379c0.209-3.854,6.803-5.552,8.057-1.55c-0.549-3.298,3.158-6.912,6.854-5.76
						c-0.289-1.702,1.188-4.06,3.043-3.991c1.545,0.064,1.221,1.986,2.314,2.39c0.277,0.11,2.957-0.503,3.25-0.707
						c0.928-0.648,0.303-1.407,1.92-1.79c0.486-0.119,2.143-0.308,2.611-0.238c1.387,0.201,0.777,0.98,1.891,1.738
						c0.453,0.312,0.885,0.458,1.455,0.262c0.801-0.286,1.336-2.026,2.209-2.513c0.387-0.222,1.121-0.147,1.432-0.403
						c0.354-0.285,0.455-0.747,0.742-1.014c0.672-0.606,0.822-1.408,2.117-0.531c1.439,0.966,1.791,3.424,3.52,4.368
						c1.816,1.003,4.641,0.8,6.357,2.152c0.699,0.55,0.561,0.243,1.01,0.97c0.197,0.321,0.227,1.674,0.58,1.88
						c1.127,0.649,3.01-2.239,4.406-2.389c1.414-0.165,2.834,0.863,2.715,2.237c3.461-0.754,3.865-6.529,8.152-5.907
						c1.178,0.17,1.656,0.548,1.988,1.673c1.4-0.609,1.652,0.593,2.447,1.371c1.131-1.333,2.27-4.168,4.188-4.513
						c2.115-0.377,3.783,2.392,4.156,4.154c-0.129,0.053-0.268,0.075-0.404,0.066c1.238-1.413,2.064-4.874,4.188-5.071
						c1.318,1.721,0.568,5.276,0.566,7.367c-0.021-0.164-0.021-0.329-0.018-0.497c3.115-0.196,8.523-0.756,10.928,1.655
						c0.891,0.888,2.242,5.921,0.006,5.833c2.631,0.068,6.227-0.995,8.711-0.147c1.092,0.366,2.686,1.941,0.939,2.848
						c2.975,0.132,12.572-0.225,11.965,4.664c-0.932,0.383-1.549-0.173-1.529-1.161c1.457-0.169,3.547,2.068,4.182,3.334
						c0.725,1.452,0.5,3.477,0.516,5.116c0.012,1.289,0.264,2.92-0.02,4.188c-0.145,0.63-0.689,0.329-0.848,0.984
						c-0.309,1.243,0.164,2.398-0.344,3.71c-0.432,1.125-1.295,2.122-2.098,2.983c1.326,0.558,3.764,1.933,3.088,3.558
						c-0.428,1.028-2.574,1.948-3.379,2.721c-0.662,0.635-1.129,1.464-1.936,1.918c0.619,0.992,3.125,2.726,3.006,4.005
						c-0.143,1.527-2.312,1.227-2.963,2.647c-0.871,1.917,0.939,3.513-1.844,4.507c-2.254,0.802-4.824-0.192-6.479-1.7
						c1.621,0.638,3.146,2.489,4.293,3.796c1.195,1.363,1.916,1.981,0.338,3.085c-2.695,1.882-7.285,0.485-9.461-1.384
						c-1.625-1.388-2.85-3.228-4.361-4.731c-0.68,1.905-5.338,2.983-7.141,2.696c-2.68-0.425-4.268-3.324-4.062-5.971
						c1.342,0.607,2.35,2.033,2.531,3.508c0.154,1.228-0.322,1.637-1.254,2.231c-1.479,0.939-1.654,0.341-1.672,2.243
						c-0.02,1.82,1.168,5.367-0.24,6.907c-1.594,1.739-4.377-1.218-5.174-2.239c-0.062,3.596-2.123,6.889-6.035,5.679
						c-1.16-0.357-6.287-3.439-5.447-4.823c0.479-0.785,2.025-0.723,2.777-0.58c0.336,1.061-0.576,1.562-1.43,1.944
						c-2.934,1.321-5.117-0.425-6.613-2.85c-0.547-0.884-3.104-5.314-1.123-5.802c-2.371-1.562-4.83-6.612-4.482-9.514
						c0.387-0.004,0.932-0.115,1.303-0.008c-1.236,0.062-1.57,0.247-2.002-0.754c-0.455-1.092,0.402-2.546,1.305-3.094
						c-1.59-0.178-2.98,2.092-2.953,3.522c0.021,1.297,1.004,2.192,1.873,2.985c-3.211,2.136,1.646,3.646,2.422,4.974
						c1.379,2.351-2.996,2.465-4.617,2.374c-0.143,1.09,0.926,1.716,0.195,2.567c-1.711,0.307-3.43,0.374-5.16,0.212
						c-1.719-0.21-2.197-0.206-3.006-1.474c-0.486-0.78-0.578-1.798-0.604-2.648c-3.336-0.218-10.33,2.955-9.783-2.616
						c0,1.924,0.012,3.854,0,5.771c-1.191,0.059-2.535,0.214-3.594-0.463c-1.479,2.028-4.654,5.366-7.459,4.769
						c-1.641-0.35-4.07-2.73-4.504-4.273c3.82,0.312,0.17,2.983-0.773,4.095c-2.357,2.772-5.311,5.52-8.438,1.789
						c0.865,0.533,1.709,1.55,1.975,2.583c-4.27,2.532-9.912-0.165-11.121-4.786c-1.734,3.374-8.369,6.898-11.93,4.494
						c-2.967-2.005-1.258-6.789,1.469-4.186c-3.936-0.521-8.895-4.859-6.836-6.834c0,0-6.168,0.833-6.168-6.674
						c0-7.504-4.67-13.844,0.164-13.339c4.838,0.498,1.334-10.346,5.006-9.178c0.17-3.503,2-5.505,5.842-3.001
						c0.498-2.167,6.004-5.005,8.672-2.503c0-2.834,0.334-5.168,4.006-4.503C1066.589,658.752,1066.755,656.748,1073.597,656.912z"
						/>
					
						<linearGradient id="SVGID_160_" gradientUnits="userSpaceOnUse" x1="1046.8296" y1="360.894" x2="1105.5425" y2="360.894" gradientTransform="matrix(1 0 0 -1 116 1070.8477)">
						<stop  offset="0.1629" style="stop-color:#9B732B"/>
						<stop  offset="0.4346" style="stop-color:#664A1D"/>
						<stop  offset="0.668" style="stop-color:#9B732B"/>
						<stop  offset="0.9008" style="stop-color:#664A1D"/>
					</linearGradient>
					<path clip-path="url(#SVGID_140_)" fill="url(#SVGID_160_)" d="M1162.83,750.152c0,0,7.674-10.345,21.016-99.744
						c5.346,21.019,16.021,92.402,37.697,119.091C1171.505,761.827,1162.83,750.152,1162.83,750.152z"/>
					
						<linearGradient id="SVGID_161_" gradientUnits="userSpaceOnUse" x1="1111.1304" y1="425.3682" x2="1195.8066" y2="278.7045" gradientTransform="matrix(1 0 0 -1 116 1070.8477)">
						<stop  offset="0.3354" style="stop-color:#664A1D"/>
						<stop  offset="0.575" style="stop-color:#5F3D16"/>
					</linearGradient>
					<path clip-path="url(#SVGID_140_)" fill="url(#SVGID_161_)" d="M1355.978,730.469c0,0-38.359-17.013-50.039-69.386
						c-2.994-12.343-3.67-8.672-3.67-8.672l-118.424-2.002c0,0,20.023,112.084,37.697,119.091
						c17.678,7.004,115.76-0.332,128.764-22.682C1354.306,733.809,1355.978,730.469,1355.978,730.469z"/>
					<g clip-path="url(#SVGID_140_)">
						<path d="M1183.513,651.077c0,0,0.236,6.986,0.59,17.464c0.154,5.239,0.334,11.354,0.525,17.902
							c0.176,6.55,0.363,13.537,0.551,20.522c0.342,13.975,0.684,27.947,0.939,38.427c0.146,5.239,0.236,9.607,0.363,12.662
							c0.119,3.049,0.25,4.812,0.367,4.774c-0.117,0.038-0.295-1.721-0.492-4.769c-0.191-3.052-0.449-7.414-0.66-12.652
							c-0.213-5.238-0.471-11.351-0.668-17.899c-0.189-6.55-0.395-13.537-0.598-20.522c-0.154-6.988-0.307-13.977-0.451-20.527
							c-0.107-6.551-0.211-12.667-0.297-17.908C1183.582,658.066,1183.513,651.077,1183.513,651.077z"/>
					</g>
					<polygon clip-path="url(#SVGID_140_)" fill="#110E0E" points="9.95,820.54 41.309,797.19 86.008,817.872 104.022,815.87 
						115.364,820.54 201.432,828.546 219.444,845.895 257.472,865.907 278.823,861.238 304.173,877.919 395.579,866.573 
						439.613,874.582 452.289,883.923 502.993,883.923 548.361,905.938 574.386,907.271 695.81,896.597 741.177,913.278 
						845.259,892.591 996.707,863.241 1009.384,869.909 1088.109,849.896 1126.8,824.542 1145.488,812.534 1192.855,801.191 
						1266.916,785.849 1294.933,752.489 1357.646,747.153 1404.349,729.806 1424.416,727.804 1425.923,981.745 5.905,981.745 
						5.905,819.875 					"/>
					
						<linearGradient id="SVGID_162_" gradientUnits="userSpaceOnUse" x1="-81.8335" y1="246.2886" x2="-40.0571" y2="270.4082" gradientTransform="matrix(1 0 0 -1 116 1070.8477)">
						<stop  offset="0.1082" style="stop-color:#110E0E"/>
						<stop  offset="0.3919" style="stop-color:#241C14"/>
						<stop  offset="0.6503" style="stop-color:#483C25"/>
					</linearGradient>
					<polygon clip-path="url(#SVGID_140_)" fill="url(#SVGID_162_)" points="25.297,809.196 54.652,825.21 86.008,817.872 
						41.309,797.19 					"/>
					
						<linearGradient id="SVGID_163_" gradientUnits="userSpaceOnUse" x1="-7.3647" y1="214.8813" x2="75.3272" y2="262.6235" gradientTransform="matrix(1 0 0 -1 116 1070.8477)">
						<stop  offset="0.1082" style="stop-color:#110E0E"/>
						<stop  offset="0.3919" style="stop-color:#241C14"/>
						<stop  offset="0.6503" style="stop-color:#483C25"/>
					</linearGradient>
					<path clip-path="url(#SVGID_140_)" fill="url(#SVGID_163_)" d="M117.863,821.541L96.849,835.55l9.504,4.005h63.551
						l34.024-9.509C203.929,830.046,172.907,826.046,117.863,821.541z"/>
					
						<linearGradient id="SVGID_164_" gradientUnits="userSpaceOnUse" x1="-1.4097" y1="195.4277" x2="84.6981" y2="245.1421" gradientTransform="matrix(1 0 0 -1 116 1070.8477)">
						<stop  offset="0.1082" style="stop-color:#110E0E"/>
						<stop  offset="0.3919" style="stop-color:#241C14"/>
						<stop  offset="0.6503" style="stop-color:#483C25"/>
					</linearGradient>
					<polygon clip-path="url(#SVGID_140_)" fill="url(#SVGID_164_)" points="97.35,845.559 118.364,858.57 146.886,856.062 
						166.901,869.078 217.939,855.566 174.907,858.069 154.39,848.061 119.362,852.562 					"/>
					
						<linearGradient id="SVGID_165_" gradientUnits="userSpaceOnUse" x1="-97.8818" y1="202.8477" x2="-39.6991" y2="236.4395" gradientTransform="matrix(1 0 0 -1 116 1070.8477)">
						<stop  offset="0.1082" style="stop-color:#110E0E"/>
						<stop  offset="0.7558" style="stop-color:#241C14"/>
						<stop  offset="1" style="stop-color:#483C25"/>
					</linearGradient>
					<path clip-path="url(#SVGID_140_)" fill="url(#SVGID_165_)" d="M70.326,837.552l15.013,12.511l-24.52,28.521L9.783,853.562
						l-0.5-15.507C9.282,838.057,26.795,823.042,70.326,837.552z"/>
					
						<linearGradient id="SVGID_166_" gradientUnits="userSpaceOnUse" x1="220.4048" y1="171.6001" x2="227.7768" y2="213.4092" gradientTransform="matrix(1 0 0 -1 116 1070.8477)">
						<stop  offset="0.1082" style="stop-color:#110E0E"/>
						<stop  offset="0.3919" style="stop-color:#241C14"/>
						<stop  offset="0.6503" style="stop-color:#483C25"/>
						<stop  offset="0.8101" style="stop-color:#5D523E"/>
					</linearGradient>
					<polyline clip-path="url(#SVGID_140_)" fill="url(#SVGID_166_)" points="278.823,861.238 257.472,865.907 250.465,870.075 
						263.476,881.586 302.005,879.085 318.518,896.095 385.068,883.591 416.592,885.09 432.104,873.079 395.579,866.573 
						306.009,877.581 278.823,861.238 					"/>
					
						<linearGradient id="SVGID_167_" gradientUnits="userSpaceOnUse" x1="342.2817" y1="125.9653" x2="381.6646" y2="194.1784" gradientTransform="matrix(1 0 0 -1 116 1070.8477)">
						<stop  offset="0.0343" style="stop-color:#110E0E"/>
						<stop  offset="0.3091" style="stop-color:#241C14"/>
						<stop  offset="0.5552" style="stop-color:#483C25;stop-opacity:0.6"/>
						<stop  offset="0.805" style="stop-color:#5D523E;stop-opacity:0.7"/>
						<stop  offset="0.9956" style="stop-color:#F0F4D0;stop-opacity:0.9"/>
					</linearGradient>
					<polygon clip-path="url(#SVGID_140_)" fill="url(#SVGID_167_)" points="448.118,882.589 407.586,915.612 462.128,920.613 
						526.678,915.612 548.361,905.938 502.993,883.923 					"/>
					<path clip-path="url(#SVGID_140_)" fill="#251818" d="M177.907,884.591c1.504,0.499,66.054-10.511,66.054-10.511l4.503,8.006
						l-15.01,3.004l-6.008-3.004L177.907,884.591z"/>
					
						<linearGradient id="SVGID_168_" gradientUnits="userSpaceOnUse" x1="288.585" y1="135.2192" x2="364.6445" y2="135.2192" gradientTransform="matrix(1 0 0 -1 116 1070.8477)">
						<stop  offset="0" style="stop-color:#435F6A"/>
						<stop  offset="0.4905" style="stop-color:#251818"/>
					</linearGradient>
					<path clip-path="url(#SVGID_140_)" fill="url(#SVGID_168_)" d="M480.645,928.125l-38.031-2.503l-38.028,20.013l26.521-9.507
						c0,0,29.523,6.004,33.022,5.506C467.632,941.132,480.645,928.125,480.645,928.125z"/>
					
						<linearGradient id="SVGID_169_" gradientUnits="userSpaceOnUse" x1="329.6128" y1="114.4556" x2="115.9487" y2="114.4556" gradientTransform="matrix(1 0 0 -1 116 1070.8477)">
						<stop  offset="0" style="stop-color:#435F6A"/>
						<stop  offset="0.4905" style="stop-color:#251818"/>
						<stop  offset="0.981" style="stop-color:#110E0E"/>
					</linearGradient>
					<polygon clip-path="url(#SVGID_140_)" fill="url(#SVGID_169_)" points="388.571,944.134 395.077,937.13 382.066,929.124 
						325.02,944.633 275.486,938.131 231.949,952.143 328.523,981.163 392.072,983.661 445.613,958.144 436.108,953.141 					"/>
					
						<linearGradient id="SVGID_170_" gradientUnits="userSpaceOnUse" x1="413.479" y1="81.6396" x2="421.7991" y2="112.6908" gradientTransform="matrix(1 0 0 -1 116 1070.8477)">
						<stop  offset="0.0343" style="stop-color:#110E0E"/>
						<stop  offset="0.3091" style="stop-color:#241C14"/>
						<stop  offset="0.5552" style="stop-color:#483C25;stop-opacity:0.6"/>
						<stop  offset="0.805" style="stop-color:#5D523E;stop-opacity:0.7"/>
					</linearGradient>
					<polygon clip-path="url(#SVGID_140_)" fill="url(#SVGID_170_)" points="473.638,955.312 479.974,962.316 483.645,962.316 
						502.325,975.991 501.324,981.663 596.065,983 510.999,950.975 					"/>
					
						<linearGradient id="SVGID_171_" gradientUnits="userSpaceOnUse" x1="199.5161" y1="172.0083" x2="309.9326" y2="172.0083" gradientTransform="matrix(1 0 0 -1 116 1070.8477)">
						<stop  offset="0.4617" style="stop-color:#251818"/>
						<stop  offset="0.8676" style="stop-color:#291C19"/>
						<stop  offset="1" style="stop-color:#5D523E"/>
					</linearGradient>
					<path clip-path="url(#SVGID_140_)" fill="url(#SVGID_171_)" d="M425.933,885.925L415.927,900.6l-15.682-0.999
						c0,0-46.031,20.016-84.729,8.673c33.358,0.669,63.046-9.675,63.046-9.675l-21.344,0.334l26.015-5.672l28.692,1.333
						L425.933,885.925z"/>
					
						<linearGradient id="SVGID_172_" gradientUnits="userSpaceOnUse" x1="90.4326" y1="174.083" x2="-21.6543" y2="174.083" gradientTransform="matrix(1 0 0 -1 116 1070.8477)">
						<stop  offset="0.4905" style="stop-color:#251818"/>
						<stop  offset="0.981" style="stop-color:#110E0E"/>
					</linearGradient>
					<polygon clip-path="url(#SVGID_140_)" fill="url(#SVGID_172_)" points="206.433,902.934 152.725,907.271 155.393,910.939 
						128.372,912.611 94.346,882.921 138.381,891.593 130.376,880.919 					"/>
					
						<linearGradient id="SVGID_173_" gradientUnits="userSpaceOnUse" x1="486.1133" y1="140.6299" x2="486.1133" y2="106.6987" gradientTransform="matrix(1 0 0 -1 116 1070.8477)">
						<stop  offset="0.0343" style="stop-color:#110E0E"/>
						<stop  offset="0.3091" style="stop-color:#241C14"/>
						<stop  offset="0.5552" style="stop-color:#483C25;stop-opacity:0.6"/>
						<stop  offset="0.805" style="stop-color:#5D523E;stop-opacity:0.7"/>
						<stop  offset="0.9956" style="stop-color:#F0F4D0;stop-opacity:0.9"/>
					</linearGradient>
					<path clip-path="url(#SVGID_140_)" fill="url(#SVGID_173_)" d="M568.71,964.148l18.013-3.499c0,0,43.035-34.529,48.04-30.027
						c4.999,4.505-16.513,0.504-16.513,0.504S578.215,946.137,568.71,964.148z"/>
					
						<linearGradient id="SVGID_174_" gradientUnits="userSpaceOnUse" x1="1185.519" y1="192.1689" x2="1185.519" y2="144.2231" gradientTransform="matrix(1 0 0 -1 116 1070.8477)">
						<stop  offset="0.0343" style="stop-color:#110E0E"/>
						<stop  offset="0.3091" style="stop-color:#241C14"/>
						<stop  offset="0.5552" style="stop-color:#483C25;stop-opacity:0.6"/>
						<stop  offset="0.805" style="stop-color:#5D523E;stop-opacity:0.7"/>
						<stop  offset="0.9956" style="stop-color:#F0F4D0;stop-opacity:0.9"/>
					</linearGradient>
					<path clip-path="url(#SVGID_140_)" fill="url(#SVGID_174_)" d="M1273.251,888.089l-36.531,24.021l29.023-1.503l-7.508,16.017
						l108.084-18.519l-27.02-24.018C1339.3,884.089,1278.248,869.575,1273.251,888.089z"/>
					
						<linearGradient id="SVGID_175_" gradientUnits="userSpaceOnUse" x1="1074.9351" y1="224.7905" x2="1074.9351" y2="152.7329" gradientTransform="matrix(1 0 0 -1 116 1070.8477)">
						<stop  offset="0" style="stop-color:#435F6A"/>
						<stop  offset="0.4789" style="stop-color:#7E7749"/>
						<stop  offset="0.7385" style="stop-color:#30251C"/>
						<stop  offset="0.981" style="stop-color:#110E0E"/>
					</linearGradient>
					<path clip-path="url(#SVGID_140_)" fill="url(#SVGID_175_)" d="M1146.652,913.107l9.506-14.51l6.502,9.508l-4.996,10.009
						c0,0,59.543-8.508,55.037-8.508c-4.502,0-8.004-1.501-8.004-1.501l17.014-2.999l27.021-17.019l-15.516-42.031l-82.562,34.527
						l-17.514,24.521l6.008,10.506l7.504-4.503"/>
					
						<linearGradient id="SVGID_176_" gradientUnits="userSpaceOnUse" x1="982.3667" y1="192.7642" x2="982.3667" y2="141.7231" gradientTransform="matrix(1 0 0 -1 116 1070.8477)">
						<stop  offset="0" style="stop-color:#435F6A"/>
						<stop  offset="0.2014" style="stop-color:#7E7749"/>
						<stop  offset="0.4575" style="stop-color:#30251C"/>
						<stop  offset="0.981" style="stop-color:#110E0E"/>
					</linearGradient>
					<path clip-path="url(#SVGID_140_)" fill="url(#SVGID_176_)" d="M1145.656,878.083l-69.059,18.012l-13.512,1.001
						c0,0,44.535-19.013,29.025-13.007c-15.514,6.003-34.027,5.504-34.027,5.504l2.5,10.008l-9.504,29.523l27.02-18.015l3.506,4
						l31.521-6.002l4.998-17.516L1145.656,878.083z"/>
					
						<linearGradient id="SVGID_177_" gradientUnits="userSpaceOnUse" x1="848.7612" y1="172.7505" x2="848.7612" y2="208.2769" gradientTransform="matrix(1 0 0 -1 116 1070.8477)">
						<stop  offset="0.0343" style="stop-color:#110E0E"/>
						<stop  offset="0.1712" style="stop-color:#241C14"/>
						<stop  offset="0.4759" style="stop-color:#483C25;stop-opacity:0.6"/>
						<stop  offset="0.6567" style="stop-color:#5D523E;stop-opacity:0.7"/>
						<stop  offset="0.9956" style="stop-color:#F0F4D0;stop-opacity:0.9"/>
					</linearGradient>
					<polygon clip-path="url(#SVGID_140_)" fill="url(#SVGID_177_)" points="995.039,862.571 1009.384,869.909 1070.589,875.081 
						1048.076,887.088 917.476,891.093 870.943,898.098 858.931,888.089 					"/>
					
						<linearGradient id="SVGID_178_" gradientUnits="userSpaceOnUse" x1="884.5386" y1="183.7612" x2="884.5386" y2="147.8931" gradientTransform="matrix(1 0 0 -1 116 1070.8477)">
						<stop  offset="0" style="stop-color:#7E7749;stop-opacity:0.7"/>
						<stop  offset="0.4575" style="stop-color:#30251C"/>
						<stop  offset="0.981" style="stop-color:#110E0E"/>
					</linearGradient>
					<path clip-path="url(#SVGID_140_)" fill="url(#SVGID_178_)" d="M958.337,889.593l2.338,9.006l-7.672,6.007l31.021,18.349
						l64.051-19.02v-16.847C1048.076,887.088,965.681,886.927,958.337,889.593z"/>
					
						<linearGradient id="SVGID_179_" gradientUnits="userSpaceOnUse" x1="1015.8052" y1="250.9751" x2="1015.8052" y2="212.6128" gradientTransform="matrix(1 0 0 -1 116 1070.8477)">
						<stop  offset="0.0343" style="stop-color:#110E0E"/>
						<stop  offset="0.1712" style="stop-color:#241C14"/>
						<stop  offset="0.4759" style="stop-color:#483C25;stop-opacity:0.6"/>
						<stop  offset="0.6567" style="stop-color:#5D523E;stop-opacity:0.7"/>
						<stop  offset="0.9956" style="stop-color:#F0F4D0;stop-opacity:0.9"/>
					</linearGradient>
					<polygon clip-path="url(#SVGID_140_)" fill="url(#SVGID_179_)" points="1089.439,849.896 1125.134,858.234 1174.173,832.551 
						1134.138,830.882 1124.466,827.544 1132.8,819.872 					"/>
					
						<linearGradient id="SVGID_180_" gradientUnits="userSpaceOnUse" x1="1039.6772" y1="240.665" x2="1112.3633" y2="282.6304" gradientTransform="matrix(1 0 0 -1 116 1070.8477)">
						<stop  offset="0" style="stop-color:#435F6A;stop-opacity:0.8"/>
						<stop  offset="0.4789" style="stop-color:#7E7749"/>
						<stop  offset="0.7385" style="stop-color:#30251C"/>
						<stop  offset="0.981" style="stop-color:#110E0E"/>
					</linearGradient>
					<path clip-path="url(#SVGID_140_)" fill="url(#SVGID_180_)" d="M1145.488,812.534l21.676,0.333l28.025,7.338l43.363-14.34
						l-16.68-3.004l7.338-9.675C1229.21,793.188,1155.498,807.198,1145.488,812.534z"/>
					
						<linearGradient id="SVGID_181_" gradientUnits="userSpaceOnUse" x1="1208.4233" y1="82.6953" x2="1318.3892" y2="146.184" gradientTransform="matrix(1 0 0 -1 116 1070.8477)">
						<stop  offset="0.4905" style="stop-color:#251818"/>
						<stop  offset="0.981" style="stop-color:#110E0E"/>
					</linearGradient>
					<path clip-path="url(#SVGID_140_)" fill="url(#SVGID_181_)" d="M1421.689,908.941l-100.738,29.022l15.674,2.668
						c0,0-17.678,30.688-17.678,34.691c0,4.005,2.336,7.34,2.336,7.34l104.641-0.919l-0.229-72.139L1421.689,908.941z"/>
					
						<linearGradient id="SVGID_182_" gradientUnits="userSpaceOnUse" x1="982.1147" y1="214.4443" x2="1058.1733" y2="214.4443" gradientTransform="matrix(1 0 0 -1 116 1070.8477)">
						<stop  offset="0.0373" style="stop-color:#2F241C"/>
						<stop  offset="0.1362" style="stop-color:#7E7749"/>
						<stop  offset="0.3446" style="stop-color:#30251C"/>
						<stop  offset="0.5738" style="stop-color:#231818"/>
						<stop  offset="0.981" style="stop-color:#110E0E"/>
					</linearGradient>
					<polygon clip-path="url(#SVGID_140_)" fill="url(#SVGID_182_)" points="1098.115,859.569 1105.121,869.575 1131.138,875.586 
						1140.81,874.58 1149.486,861.906 1160.494,853.232 1154.162,853.232 1174.173,837.221 1133.14,863.241 					"/>
					
						<linearGradient id="SVGID_183_" gradientUnits="userSpaceOnUse" x1="1096.1177" y1="157.6748" x2="1048.0571" y2="74.4315" gradientTransform="matrix(1 0 0 -1 116 1070.8477)">
						<stop  offset="0" style="stop-color:#463925"/>
						<stop  offset="0.132" style="stop-color:#251818"/>
						<stop  offset="0.981" style="stop-color:#110E0E"/>
					</linearGradient>
					<polygon clip-path="url(#SVGID_140_)" fill="url(#SVGID_183_)" points="1140.81,982.995 1132.474,954.642 1157.494,939.296 
						1170.837,949.299 1218.871,945.635 1233.212,937.625 1227.875,945.303 1239.886,944.302 1253.894,937.293 1234.55,950.303 
						1230.546,956.645 1203.529,961.65 1189.519,975.655 1158.162,974.323 1151.822,983.661 					"/>
					
						<linearGradient id="SVGID_184_" gradientUnits="userSpaceOnUse" x1="865.8569" y1="142.2251" x2="865.8569" y2="83.8511" gradientTransform="matrix(1 0 0 -1 116 1070.8477)">
						<stop  offset="0" style="stop-color:#463925"/>
						<stop  offset="0.132" style="stop-color:#251818"/>
						<stop  offset="0.981" style="stop-color:#110E0E"/>
					</linearGradient>
					<polygon clip-path="url(#SVGID_140_)" fill="url(#SVGID_184_)" points="883.949,981.658 887.617,961.65 917.312,944.963 
						980.687,934.625 1043.076,936.959 1078.429,928.622 1061.087,939.627 1010.378,951.97 1002.375,964.981 1033.064,970.982 
						1079.767,965.985 1056.083,975.655 966.015,974.987 945.33,979.66 942.326,986.996 					"/>
					
						<linearGradient id="SVGID_185_" gradientUnits="userSpaceOnUse" x1="676.8818" y1="182.2544" x2="676.8818" y2="129.5513" gradientTransform="matrix(1 0 0 -1 116 1070.8477)">
						<stop  offset="0" style="stop-color:#435F6A;stop-opacity:0.8"/>
						<stop  offset="0.4789" style="stop-color:#7E7749"/>
						<stop  offset="0.7385" style="stop-color:#30251C"/>
						<stop  offset="0.981" style="stop-color:#110E0E"/>
					</linearGradient>
					<polygon clip-path="url(#SVGID_140_)" fill="url(#SVGID_185_)" points="739.177,929.96 769.867,941.296 831.246,918.613 
						843.251,922.617 862.603,922.617 853.933,905.267 855.935,888.593 745.845,913.948 723.162,907.271 744.513,924.621 					"/>
					
						<linearGradient id="SVGID_186_" gradientUnits="userSpaceOnUse" x1="1250.6548" y1="245.6382" x2="1250.6548" y2="180.2515" gradientTransform="matrix(1 0 0 -1 116 1070.8477)">
						<stop  offset="0" style="stop-color:#435F6A;stop-opacity:0.8"/>
						<stop  offset="0.7385" style="stop-color:#30251C"/>
						<stop  offset="0.981" style="stop-color:#110E0E"/>
					</linearGradient>
					<path clip-path="url(#SVGID_140_)" fill="url(#SVGID_186_)" d="M1324.958,862.571c4.67,0,38.025,28.024,38.025,28.024
						l23.354-17.352l31.355-4.669l-5.338-43.366l-30.688,31.354l-66.049-6.669L1324.958,862.571z"/>
					
						<linearGradient id="SVGID_187_" gradientUnits="userSpaceOnUse" x1="1246.9858" y1="285.6655" x2="1246.9858" y2="224.2896" gradientTransform="matrix(1 0 0 -1 116 1070.8477)">
						<stop  offset="0" style="stop-color:#435F6A;stop-opacity:0.8"/>
						<stop  offset="0.7385" style="stop-color:#30251C"/>
						<stop  offset="0.981" style="stop-color:#110E0E"/>
					</linearGradient>
					<polygon clip-path="url(#SVGID_140_)" fill="url(#SVGID_187_)" points="1417.693,785.182 1326.291,801.191 1308.281,821.873 
						1375.664,846.558 1397.679,832.546 1368.99,818.537 1413.693,799.854 					"/>
					
						<linearGradient id="SVGID_188_" gradientUnits="userSpaceOnUse" x1="1295.4272" y1="350.5425" x2="1274.689" y2="314.6227" gradientTransform="matrix(1 0 0 -1 116 1070.8477)">
						<stop  offset="0" style="stop-color:#435F6A;stop-opacity:0.8"/>
						<stop  offset="0.4789" style="stop-color:#7E7749"/>
						<stop  offset="0.7385" style="stop-color:#30251C"/>
						<stop  offset="0.981" style="stop-color:#110E0E"/>
					</linearGradient>
					<path clip-path="url(#SVGID_140_)" fill="url(#SVGID_188_)" d="M1370.324,743.812l34.697,20.688l22.68-24.691h-15.344
						l12.059-12.004C1424.416,727.804,1405.687,722.463,1370.324,743.812z"/>
					
						<linearGradient id="SVGID_189_" gradientUnits="userSpaceOnUse" x1="1238.4351" y1="329.6025" x2="1201.3252" y2="265.3264" gradientTransform="matrix(1 0 0 -1 116 1070.8477)">
						<stop  offset="0" style="stop-color:#435F6A;stop-opacity:0.8"/>
						<stop  offset="0.4789" style="stop-color:#7E7749"/>
						<stop  offset="0.7385" style="stop-color:#30251C"/>
						<stop  offset="0.981" style="stop-color:#110E0E"/>
					</linearGradient>
					<polygon clip-path="url(#SVGID_140_)" fill="url(#SVGID_189_)" points="1276.921,777.171 1298.267,794.52 1336.97,764.5 
						1374.332,774.503 1388.341,780.511 1397.013,765.828 1346.306,754.489 1339.632,751.819 1292.265,753.821 					"/>
				</g>
				<g>
					<defs>
						<rect id="SVGID_190_" y="3" width="1417.429" height="988.847"/>
					</defs>
					<clipPath id="SVGID_191_">
						<use xlink:href="#SVGID_190_"  overflow="visible"/>
					</clipPath>
					<g opacity="0.8" clip-path="url(#SVGID_191_)">
						
							<image overflow="visible" enable-background="new    " width="1536" height="1104" xlink:href="450C88DF.png"  transform="matrix(1 0 0 1 -57.626 -59.7344)">
						</image>
					</g>
				</g>
				<g>
					<defs>
						<rect id="SVGID_192_" y="3" width="1417.429" height="988.847"/>
					</defs>
					<clipPath id="SVGID_193_">
						<use xlink:href="#SVGID_192_"  overflow="visible"/>
					</clipPath>
					<rect x="-1.278" y="68.596" clip-path="url(#SVGID_193_)" fill="none" width="1419.689" height="915.389"/>
				</g>
			</g>
		</g>
	</g>
</g>
</svg>
